<svg class="animated" id="freepik_stories-floating-in-water" xmlns="http://www.w3.org/2000/svg" viewBox="0 0 500 500" version="1.1" xmlns:xlink="http://www.w3.org/1999/xlink" xmlns:svgjs="http://svgjs.com/svgjs"><style>svg#freepik_stories-floating-in-water:not(.animated) .animable {opacity: 0;}svg#freepik_stories-floating-in-water.animated #freepik--Fishes--inject-267 {animation: 6s Infinite  linear wind;animation-delay: 0s;}svg#freepik_stories-floating-in-water.animated #freepik--Plants--inject-267 {animation: 3s Infinite  linear wind;animation-delay: 0s;}            @keyframes wind {                0% {                    transform: rotate( 0deg );                }                25% {                    transform: rotate( 1deg );                }                75% {                    transform: rotate( -1deg );                }            }        </style><g id="freepik--background-simple--inject-267" class="animable" style="transform-origin: 249.934px 233.566px;"><path d="M384.71,116.94A208.49,208.49,0,0,0,373.9,98.05C328,28.06,205.08-10,144.18,62.3c-14.52,17.25-19.58,38.08-29.35,57.86-22.22,45-63.74,71.86-89.78,113.51C4.87,266,7.56,307.32,18.82,342.22c12.23,37.93,33.76,64.41,68.2,84.54,38.61,22.57,79.9,16.31,121.63,8.45,18.77-3.53,38.11-7.13,57.3-5.78,24,1.68,47.75,8.48,71.59,11.79,24.78,3.44,50.5,4.25,74.38-3.24,76.48-24,94.59-136.4,63.15-200.8-11.14-22.79-30-40.38-47.52-58.22C408.64,159.7,397.05,140.85,384.71,116.94Z" style="fill: #46F1DB; transform-origin: 249.934px 233.566px;" id="elns6u8u118zf" class="animable"></path><g id="elp2uhfl72dwr"><path d="M384.71,116.94A208.49,208.49,0,0,0,373.9,98.05C328,28.06,205.08-10,144.18,62.3c-14.52,17.25-19.58,38.08-29.35,57.86-22.22,45-63.74,71.86-89.78,113.51C4.87,266,7.56,307.32,18.82,342.22c12.23,37.93,33.76,64.41,68.2,84.54,38.61,22.57,79.9,16.31,121.63,8.45,18.77-3.53,38.11-7.13,57.3-5.78,24,1.68,47.75,8.48,71.59,11.79,24.78,3.44,50.5,4.25,74.38-3.24,76.48-24,94.59-136.4,63.15-200.8-11.14-22.79-30-40.38-47.52-58.22C408.64,159.7,397.05,140.85,384.71,116.94Z" style="fill: rgb(255, 255, 255); opacity: 0.7; transform-origin: 249.934px 233.566px;" class="animable" id="elekht111bojs"></path></g></g><g id="freepik--Fishes--inject-267" class="animable" style="transform-origin: 238.904px 248.648px;"><path d="M149.47,230.17a3.46,3.46,0,0,1-1.48,5.08,1.55,1.55,0,0,1-.29.09c-.63.13-4.08,1-12.63,1.41s-27.18-4.34-38.28-7.53S78.54,218.5,76.37,216.46s-4.21-5.36-7.52-8.81-4.47-6-2.81-6.38a10.85,10.85,0,0,1,6.89,1.28c2.17,1.28,2.42,1.91,2.42,4.72s.77,7.15,4,8.55,8.68,5,19.14,4.47,23.86-1.92,34.58,1.15C140.83,223.66,147.2,226.84,149.47,230.17Z" style="fill: #46F1DB; transform-origin: 107.669px 218.965px;" id="ele3gev1j06cg" class="animable"></path><path d="M134,237.27c-10.23,0-31.07-5.75-37.39-7.57-10.36-3-17.39-9.76-20-12.31l-.59-.57A36.29,36.29,0,0,1,72.71,213c-1.2-1.51-2.55-3.23-4.23-5-1.91-2-4.1-4.69-3.63-6.27a1.35,1.35,0,0,1,1.08-.94,11.31,11.31,0,0,1,7.25,1.33c2.41,1.42,2.67,2.3,2.67,5.15,0,1.52.27,6.6,3.66,8.09.45.2.94.44,1.49.71a32.52,32.52,0,0,0,17.42,3.72l4.66-.26c9.76-.57,20.82-1.22,30.09,1.42,8.4,2.4,14.49,5.66,16.71,8.94a4,4,0,0,1-1.69,5.82,1.88,1.88,0,0,1-.39.12l-.21,0a78.41,78.41,0,0,1-12.5,1.37ZM67.47,201.63a6.34,6.34,0,0,0-1.32.13c-.29.07-.32.19-.34.26-.2.67.77,2.56,3.4,5.29,1.7,1.77,3.07,3.51,4.29,5a33.59,33.59,0,0,0,3.22,3.74l.59.58c2.6,2.5,9.49,9.16,19.62,12.07,6.51,1.87,28.5,7.93,38.12,7.51a76.14,76.14,0,0,0,12.32-1.35l.24-.05a.62.62,0,0,0,.18-.06,2.9,2.9,0,0,0,1.64-1.86,2.93,2.93,0,0,0-.38-2.48h0c-2.06-3-8.1-6.23-16.16-8.53-9.1-2.61-20.07-2-29.75-1.39l-4.67.26A33.92,33.92,0,0,1,80.56,217c-.53-.26-1-.5-1.45-.69-4-1.74-4.26-7.33-4.26-9,0-2.7-.22-3.14-2.18-4.29A10.87,10.87,0,0,0,67.47,201.63Z" style="fill: rgb(38, 50, 56); transform-origin: 107.657px 218.966px;" id="ele9v0v7ivyl8" class="animable"></path><path d="M129.28,220.57s-3.44-10.88-6.4-10.64-3.68,7-3.2,8.08,2.4,1.68,2.4,1.68Z" style="fill: #46F1DB; transform-origin: 124.412px 215.248px;" id="elpv85qqr8qto" class="animable"></path><path d="M129.28,221.07h-.06l-7.2-.87c-.32-.1-2.24-.77-2.79-2-.42-.91-.14-4.72,1.19-7a3.14,3.14,0,0,1,2.42-1.8c3.23-.26,6.32,9.11,6.91,11a.47.47,0,0,1-.09.47A.49.49,0,0,1,129.28,221.07Zm-7.09-1.87,6.37.78c-1.44-4.28-4-9.73-5.64-9.55a2.25,2.25,0,0,0-1.64,1.3,10.93,10.93,0,0,0-1.15,6.07C120.44,218.46,121.71,219,122.19,219.2Z" style="fill: rgb(38, 50, 56); transform-origin: 124.414px 215.232px;" id="elmi7msrzcnor" class="animable"></path><path d="M121.92,235.45s-2.8,2.88-2.72,4.88,3.6,7.92,6.16,6.16,2.24-10.16,2.24-10.16Z" style="fill: #46F1DB; transform-origin: 123.406px 241.131px;" id="eluanmskyxf7" class="animable"></path><path d="M124.35,247.31a2.79,2.79,0,0,1-1.27-.33c-2.24-1.12-4.31-4.93-4.38-6.63-.09-2.19,2.74-5.13,2.86-5.25A.5.5,0,0,1,122,235l5.67.88a.51.51,0,0,1,.43.48c0,.89.25,8.73-2.46,10.59A2.27,2.27,0,0,1,124.35,247.31ZM122.1,236c-.82.9-2.46,3-2.4,4.33s1.89,4.81,3.83,5.78a1.42,1.42,0,0,0,1.55,0c1.8-1.24,2.08-6.8,2-9.31Z" style="fill: rgb(38, 50, 56); transform-origin: 123.402px 241.148px;" id="elwcjiraia7vg" class="animable"></path><path d="M104.8,231.53s-2.24,1.36-2.56,2.64.24,3.36,1.2,3,4.08-5.12,4.08-5.12Z" style="fill: #46F1DB; transform-origin: 104.835px 234.371px;" id="elp3isltnoda" class="animable"></path><path d="M103.24,237.74a1.15,1.15,0,0,1-.77-.32,3.92,3.92,0,0,1-.71-3.37c.36-1.44,2.53-2.8,2.78-3a.46.46,0,0,1,.36-.06l2.72.56a.49.49,0,0,1,.36.29.49.49,0,0,1,0,.47c-.75,1.16-3.3,5-4.34,5.32A1.13,1.13,0,0,1,103.24,237.74Zm1.66-5.68c-.81.52-2,1.5-2.17,2.23a3,3,0,0,0,.42,2.39c.07.07.1.06.13,0,.47-.18,2-2.26,3.42-4.3Z" style="fill: rgb(38, 50, 56); transform-origin: 104.84px 234.358px;" id="elbkazj2xez9" class="animable"></path><path d="M106.4,225.13s-5.28,2.32-9,2.16-10.64-5.76-10.64-5.76S100,225.93,106.4,225.13Z" style="fill: #46F1DB; transform-origin: 96.58px 224.414px;" id="elzisfv6mqsgs" class="animable"></path><path d="M97.74,227.8h-.4c-3.88-.17-10.65-5.64-10.93-5.87a.51.51,0,0,1-.13-.63.52.52,0,0,1,.6-.24c.13,0,13.24,4.36,19.46,3.58a.5.5,0,0,1,.54.37.5.5,0,0,1-.28.59C106.39,225.68,101.53,227.8,97.74,227.8Zm-8.42-5c2.3,1.63,5.82,3.84,8.06,3.94a19,19,0,0,0,6.07-1.1A70.53,70.53,0,0,1,89.32,222.85Z" style="fill: rgb(38, 50, 56); transform-origin: 96.5603px 224.419px;" id="elckxnnt93h9v" class="animable"></path><path d="M67.7,204.32a.27.27,0,0,1-.21-.12l-1.67-2.8a.25.25,0,0,1,.43-.25l1.67,2.79a.25.25,0,0,1-.09.34A.2.2,0,0,1,67.7,204.32Z" style="fill: rgb(38, 50, 56); transform-origin: 66.8755px 202.684px;" id="elft53hwefs9" class="animable"></path><path d="M69.31,204.82a.26.26,0,0,1-.22-.13L68,202.57a.24.24,0,0,1,.1-.33.25.25,0,0,1,.34.1l1.11,2.12a.25.25,0,0,1-.11.33A.27.27,0,0,1,69.31,204.82Z" style="fill: rgb(38, 50, 56); transform-origin: 68.7722px 203.515px;" id="el9798osv531q" class="animable"></path><path d="M71.23,204.52a.26.26,0,0,1-.25-.2l-.5-2.52a.25.25,0,0,1,.19-.29.25.25,0,0,1,.3.2l.5,2.51a.24.24,0,0,1-.19.29Z" style="fill: rgb(38, 50, 56); transform-origin: 70.9759px 203.012px;" id="ellk8frwvlrri" class="animable"></path><path d="M72.84,206.13h0a.25.25,0,0,1-.24-.26l.1-2.32a.24.24,0,0,1,.26-.23.25.25,0,0,1,.24.26l-.1,2.31A.26.26,0,0,1,72.84,206.13Z" style="fill: rgb(38, 50, 56); transform-origin: 72.9px 204.725px;" id="eljpcfqi27ep" class="animable"></path><path d="M73.74,206.43h0a.26.26,0,0,1-.22-.28l.31-2.61a.25.25,0,0,1,.27-.22.24.24,0,0,1,.22.27l-.3,2.62A.24.24,0,0,1,73.74,206.43Z" style="fill: rgb(38, 50, 56); transform-origin: 73.9205px 204.876px;" id="eldqrniadascq" class="animable"></path><path d="M122.25,218.81a.2.2,0,0,1-.11,0l-2.52-1.31a.25.25,0,0,1-.11-.33.25.25,0,0,1,.34-.11l2.52,1.31a.24.24,0,0,1,.1.34A.25.25,0,0,1,122.25,218.81Z" style="fill: rgb(38, 50, 56); transform-origin: 120.995px 217.925px;" id="eloafqu9pcvha" class="animable"></path><path d="M123.46,218.31a.25.25,0,0,1-.16-.06l-3.52-2.82a.24.24,0,0,1,0-.35.26.26,0,0,1,.35,0l3.52,2.82a.24.24,0,0,1,0,.35A.26.26,0,0,1,123.46,218.31Z" style="fill: rgb(38, 50, 56); transform-origin: 121.715px 216.662px;" id="el0ggpfdk4n3fb" class="animable"></path><path d="M123.56,216.29a.27.27,0,0,1-.17-.06l-2.21-2a.25.25,0,0,1,0-.36.24.24,0,0,1,.35,0l2.22,2a.24.24,0,0,1,0,.35A.22.22,0,0,1,123.56,216.29Z" style="fill: rgb(38, 50, 56); transform-origin: 122.465px 215.043px;" id="elsf81r5wrrkc" class="animable"></path><path d="M122.55,212.57a.25.25,0,0,1-.2-.1l-1-1.3a.26.26,0,0,1,0-.36.25.25,0,0,1,.35.05l1,1.31a.25.25,0,0,1,0,.35A.25.25,0,0,1,122.55,212.57Z" style="fill: rgb(38, 50, 56); transform-origin: 122.025px 211.665px;" id="eljduqitz0v1d" class="animable"></path><path d="M124.46,215.29a.26.26,0,0,1-.2-.11l-1.41-2a.25.25,0,1,1,.41-.29l1.41,2a.25.25,0,0,1-.06.35A.3.3,0,0,1,124.46,215.29Z" style="fill: rgb(38, 50, 56); transform-origin: 123.76px 214.037px;" id="eldg6lkeef6js" class="animable"></path><path d="M125.87,214.89a.27.27,0,0,1-.21-.12L124,212a.27.27,0,0,1,.08-.35.26.26,0,0,1,.35.09l1.71,2.82a.25.25,0,0,1-.09.34A.28.28,0,0,1,125.87,214.89Z" style="fill: rgb(38, 50, 56); transform-origin: 125.07px 213.263px;" id="elbekl90lb7v8" class="animable"></path><path d="M119.43,241.35a.23.23,0,0,1-.17-.07.25.25,0,0,1,0-.35l2.22-2.31a.24.24,0,0,1,.35,0,.25.25,0,0,1,0,.35l-2.22,2.32A.24.24,0,0,1,119.43,241.35Z" style="fill: rgb(38, 50, 56); transform-origin: 120.545px 239.948px;" id="el07yefv8n4co" class="animable"></path><path d="M121,241.86a.24.24,0,0,1-.15-.06.25.25,0,0,1,0-.35l1-1.3a.25.25,0,0,1,.4.3l-1,1.31A.26.26,0,0,1,121,241.86Z" style="fill: rgb(38, 50, 56); transform-origin: 121.539px 240.957px;" id="elvppd77pwt0h" class="animable"></path><path d="M121,244.17a.27.27,0,0,1-.12,0,.26.26,0,0,1-.1-.34l1.41-2.52a.25.25,0,0,1,.44.25L121.26,244A.24.24,0,0,1,121,244.17Z" style="fill: rgb(38, 50, 56); transform-origin: 121.708px 242.68px;" id="el57xjnqd8lm5" class="animable"></path><path d="M123.36,244.57a.18.18,0,0,1-.1,0,.23.23,0,0,1-.13-.32l.5-1.21a.24.24,0,0,1,.33-.13.25.25,0,0,1,.13.32l-.5,1.21A.24.24,0,0,1,123.36,244.57Z" style="fill: rgb(38, 50, 56); transform-origin: 123.607px 243.731px;" id="elfu0ucymxv5a" class="animable"></path><path d="M121.85,245.18a.23.23,0,0,1-.11,0,.25.25,0,0,1-.12-.33l.81-1.71a.25.25,0,1,1,.45.21l-.81,1.71A.25.25,0,0,1,121.85,245.18Z" style="fill: rgb(38, 50, 56); transform-origin: 122.257px 244.078px;" id="el9eufx2fsml6" class="animable"></path><path d="M125.36,246.74h0a.25.25,0,0,1-.23-.27l.21-3.07a.25.25,0,0,1,.27-.23.25.25,0,0,1,.23.27l-.21,3.06A.26.26,0,0,1,125.36,246.74Z" style="fill: rgb(38, 50, 56); transform-origin: 125.485px 244.955px;" id="el56cgszu8kfb" class="animable"></path><path d="M142.48,235.42c0,.25-.52.45-1.16.45s-1.16-.2-1.16-.45.52-.46,1.16-.46S142.48,235.17,142.48,235.42Z" style="fill: rgb(38, 50, 56); transform-origin: 141.32px 235.415px;" id="els57n6dmqkrd" class="animable"></path><path d="M141.32,236.37c-1,0-1.66-.38-1.66-1s.67-1,1.66-1,1.66.39,1.66,1S142.31,236.37,141.32,236.37Zm.73-.76h0Z" style="fill: rgb(38, 50, 56); transform-origin: 141.32px 235.37px;" id="elz689wh3k6r" class="animable"></path><path d="M143.81,226.22c-.09.23-.64.24-1.24,0s-1-.6-.92-.83.64-.24,1.24,0S143.9,226,143.81,226.22Z" style="fill: rgb(38, 50, 56); transform-origin: 142.731px 225.805px;" id="elko83zbn7ej" class="animable"></path><path d="M143.36,226.9a2.85,2.85,0,0,1-1-.2c-.92-.35-1.41-.95-1.21-1.48s1-.66,1.89-.3a2.7,2.7,0,0,1,.87.51.84.84,0,0,1,.34,1,.72.72,0,0,1-.39.41A1.43,1.43,0,0,1,143.36,226.9Zm0-.86Z" style="fill: rgb(38, 50, 56); transform-origin: 142.704px 225.81px;" id="eliu0m285p3ei" class="animable"></path><path d="M127.6,236.83a.5.5,0,0,1-.37-.17,1.24,1.24,0,0,1-.35-1.34c.53-1.42,4.17-1.94,5.28-2.06a.5.5,0,0,1,.55.44.5.5,0,0,1-.44.55c-2,.23-4.24.85-4.45,1.42,0,.09.06.22.15.32a.51.51,0,0,1,0,.71A.55.55,0,0,1,127.6,236.83Z" style="fill: rgb(38, 50, 56); transform-origin: 129.762px 235.044px;" id="elpp8vdtuawza" class="animable"></path><path d="M135.64,224.49h-.1c-3.86-.76-4.77-3.24-4.81-3.35a.5.5,0,1,1,1-.33h0c0,.08.79,2.06,4,2.69a.51.51,0,0,1,.4.59A.5.5,0,0,1,135.64,224.49Z" style="fill: rgb(38, 50, 56); transform-origin: 133.421px 222.469px;" id="elv0z5awvi6x" class="animable"></path><path d="M368.36,90.83a3.45,3.45,0,0,0,4.54,2.71l.28-.12a69,69,0,0,0,10.2-7.58c6.52-5.55,16.94-21.69,22.89-31.59S412.33,34,412.52,31,412,24.2,412,19.42s-.82-7.43-2.3-6.58a10.9,10.9,0,0,0-4.17,5.63c-.72,2.41-.47,3.05,1.44,5.11s4.31,5.75,2.93,9-3,9.55-11,16.31-18.77,14.85-24.53,24.4C370.25,80.18,367.74,86.85,368.36,90.83Z" style="fill: #46F1DB; transform-origin: 390.409px 53.2071px;" id="elrgbplfq2aws" class="animable"></path><path d="M371.77,94.24a4,4,0,0,1-3.9-3.34C367.26,87,369.5,80.46,374,73c5-8.25,13.52-15.31,21.05-21.54l3.59-3a32.45,32.45,0,0,0,10.22-14.6c.22-.56.42-1.08.61-1.53,1.47-3.4-1.8-7.3-2.83-8.41-1.95-2.09-2.36-2.92-1.56-5.59a11.34,11.34,0,0,1,4.4-5.92,1.37,1.37,0,0,1,1.43-.05c1.42.84,1.66,4.31,1.62,7.07a64.06,64.06,0,0,0,.29,6.52A35.19,35.19,0,0,1,413,31c0,.23,0,.5,0,.81-.2,3.67-.72,13.42-6.28,22.66-3.51,5.84-15.54,25.38-23,31.72a76.53,76.53,0,0,1-10.07,7.51l-.19.11a1.84,1.84,0,0,1-.37.17A3.64,3.64,0,0,1,371.77,94.24Zm38.5-81.06a.55.55,0,0,0-.28.09,10.4,10.4,0,0,0-3.94,5.34c-.65,2.17-.51,2.65,1.33,4.62,1.14,1.23,4.73,5.54,3,9.5-.19.44-.38.94-.6,1.49a33.77,33.77,0,0,1-10.5,15c-1.15,1-2.36,2-3.6,3-7.47,6.18-15.94,13.18-20.83,21.29-4.33,7.17-6.58,13.62-6,17.25h0a2.94,2.94,0,0,0,1.42,2.07,2.88,2.88,0,0,0,2.46.25,1.09,1.09,0,0,0,.19-.08l.2-.12a76.3,76.3,0,0,0,9.93-7.41c7.34-6.24,19.3-25.67,22.79-31.47,5.43-9,5.94-18.6,6.14-22.2,0-.32,0-.59,0-.83a33.39,33.39,0,0,0-.19-4.93,62.9,62.9,0,0,1-.29-6.62c.06-3.78-.52-5.83-1.12-6.18A.26.26,0,0,0,410.27,13.18Z" style="fill: rgb(38, 50, 56); transform-origin: 390.397px 53.2113px;" id="el6mishpzdfu9" class="animable"></path><path d="M376.6,70.05S371.7,59.74,374,57.9s7.49,2.65,7.85,3.74-.61,2.86-.61,2.86Z" style="fill: #46F1DB; transform-origin: 377.658px 63.7562px;" id="el89513se6rm7" class="animable"></path><path d="M376.6,70.55h-.07a.48.48,0,0,1-.38-.28c-.85-1.78-4.94-10.76-2.43-12.75a3.15,3.15,0,0,1,3-.33c2.52.75,5.32,3.35,5.63,4.3.42,1.26-.53,3.06-.64,3.26L377,70.37A.53.53,0,0,1,376.6,70.55ZM375.4,58a1.68,1.68,0,0,0-1.06.33c-1.31,1,.52,6.73,2.38,10.84l4.13-4.91a4.23,4.23,0,0,0,.56-2.43,10.93,10.93,0,0,0-5-3.66A3.74,3.74,0,0,0,375.4,58Z" style="fill: rgb(38, 50, 56); transform-origin: 377.686px 63.7517px;" id="elhk0w4pqkxr" class="animable"></path><path d="M392.12,75.93s4,.2,5.32,1.71,2.76,8.25-.32,8.71-8.56-5.91-8.56-5.91Z" style="fill: #46F1DB; transform-origin: 393.758px 81.1519px;" id="elw3po9jz77k" class="animable"></path><path d="M396.81,86.87c-3.26,0-8.07-5.46-8.63-6.1a.51.51,0,0,1,0-.64l3.56-4.51a.46.46,0,0,1,.42-.19c.17,0,4.24.23,5.66,1.89,1.12,1.29,2.2,5.49,1.32,7.84a2.39,2.39,0,0,1-1.93,1.68A2.56,2.56,0,0,1,396.81,86.87Zm-7.6-6.45c1.68,1.88,5.65,5.76,7.84,5.43a1.4,1.4,0,0,0,1.14-1c.76-2-.31-5.88-1.13-6.84s-3.49-1.43-4.71-1.53Z" style="fill: rgb(38, 50, 56); transform-origin: 393.765px 81.1489px;" id="el885n86rabw8" class="animable"></path><path d="M402,61.39s2.57-.53,3.67.19,2.12,2.63,1.2,3-6.48-1-6.48-1Z" style="fill: #46F1DB; transform-origin: 403.809px 62.9227px;" id="elj0ew3hxapbh" class="animable"></path><path d="M406.26,65.19a33.44,33.44,0,0,1-6-1,.5.5,0,0,1-.35-.31.5.5,0,0,1,.06-.46l1.61-2.27a.58.58,0,0,1,.31-.2c.28,0,2.8-.54,4.05.26a3.93,3.93,0,0,1,1.77,3,1.1,1.1,0,0,1-.65,1A2,2,0,0,1,406.26,65.19Zm-5.05-1.84c2.38.56,5,1,5.43.82,0,0,.06,0,.06-.13a3,3,0,0,0-1.32-2,5.52,5.52,0,0,0-3.11-.15Z" style="fill: rgb(38, 50, 56); transform-origin: 403.795px 63.0064px;" id="elmdfpcthjq7" class="animable"></path><path d="M396.45,57.8s5.44-1.9,8.09-4.58,3.86-11.46,3.86-11.46S401.68,54,396.45,57.8Z" style="fill: #46F1DB; transform-origin: 402.425px 49.78px;" id="el46f0vgaqokk" class="animable"></path><path d="M396.45,58.3A.49.49,0,0,1,396,58a.5.5,0,0,1,.15-.64c5.08-3.66,11.74-15.75,11.8-15.87a.52.52,0,0,1,.6-.24.51.51,0,0,1,.34.55c0,.36-1.28,9-4,11.74s-8.05,4.62-8.27,4.7A.51.51,0,0,1,396.45,58.3ZM407.4,44.5A70.56,70.56,0,0,1,399,56.2a19,19,0,0,0,5.18-3.33C405.76,51.27,406.83,47.26,407.4,44.5Z" style="fill: rgb(38, 50, 56); transform-origin: 402.418px 49.7641px;" id="elqidyi5gtaxc" class="animable"></path><path d="M410.43,16.27a.26.26,0,0,1-.25-.2l-.68-3.18a.26.26,0,0,1,.19-.3.27.27,0,0,1,.3.2l.68,3.18a.25.25,0,0,1-.19.3Z" style="fill: rgb(38, 50, 56); transform-origin: 410.086px 14.4286px;" id="el23fnswk67e2" class="animable"></path><path d="M409.59,17.74a.26.26,0,0,1-.24-.19l-.63-2.3a.26.26,0,0,1,.18-.31.25.25,0,0,1,.3.18l.63,2.3a.25.25,0,0,1-.17.31Z" style="fill: rgb(38, 50, 56); transform-origin: 409.276px 16.3366px;" id="elif86p35yk1" class="animable"></path><path d="M408,18.82a.25.25,0,0,1-.22-.12l-1.34-2.19a.25.25,0,0,1,.42-.26l1.35,2.19a.25.25,0,0,1-.08.34A.22.22,0,0,1,408,18.82Z" style="fill: rgb(38, 50, 56); transform-origin: 407.333px 17.4915px;" id="el75vnhyb20li" class="animable"></path><path d="M407.91,21.09a.24.24,0,0,1-.18-.07l-1.65-1.62a.25.25,0,0,1,0-.36.24.24,0,0,1,.35,0l1.65,1.63a.24.24,0,0,1,0,.35A.23.23,0,0,1,407.91,21.09Z" style="fill: rgb(38, 50, 56); transform-origin: 407.08px 20.0272px;" id="eljgvpxzuucx" class="animable"></path><path d="M407.45,21.93a.23.23,0,0,1-.16-.06l-2-1.71a.25.25,0,1,1,.33-.38l2,1.71a.25.25,0,0,1,0,.35A.25.25,0,0,1,407.45,21.93Z" style="fill: rgb(38, 50, 56); transform-origin: 406.447px 20.8236px;" id="elq5ct7h7t8m" class="animable"></path><path d="M380.37,64h-.08a.25.25,0,0,1-.15-.32l.95-2.68a.25.25,0,0,1,.47.17l-.95,2.67A.25.25,0,0,1,380.37,64Z" style="fill: rgb(38, 50, 56); transform-origin: 380.849px 62.4209px;" id="elosix4sa3zir" class="animable"></path><path d="M379.15,64.5h0a.24.24,0,0,1-.21-.28l.66-4.46a.25.25,0,0,1,.28-.21.24.24,0,0,1,.21.28l-.66,4.46A.24.24,0,0,1,379.15,64.5Z" style="fill: rgb(38, 50, 56); transform-origin: 379.515px 62.0257px;" id="eli9qur35rcy" class="animable"></path><path d="M377.7,63.09h0a.25.25,0,0,1-.23-.27l.25-3a.25.25,0,0,1,.27-.23.25.25,0,0,1,.23.27l-.25,3A.25.25,0,0,1,377.7,63.09Z" style="fill: rgb(38, 50, 56); transform-origin: 377.845px 61.34px;" id="eludjnuln7e9" class="animable"></path><path d="M375.9,59.68a.26.26,0,0,1-.25-.23l-.15-1.64a.24.24,0,0,1,.22-.27.25.25,0,0,1,.28.22l.15,1.65a.26.26,0,0,1-.23.27Z" style="fill: rgb(38, 50, 56); transform-origin: 375.824px 58.609px;" id="el9fiisax7p7q" class="animable"></path><path d="M376.35,63a.26.26,0,0,1-.25-.21l-.34-2.44A.26.26,0,0,1,376,60a.24.24,0,0,1,.28.21l.34,2.44a.25.25,0,0,1-.21.28Z" style="fill: rgb(38, 50, 56); transform-origin: 376.183px 61.4982px;" id="ell9zc4wi2wxl" class="animable"></path><path d="M375.05,63.64a.27.27,0,0,1-.25-.2l-.67-3.23a.26.26,0,0,1,.2-.3.25.25,0,0,1,.3.2l.66,3.22a.25.25,0,0,1-.19.3Z" style="fill: rgb(38, 50, 56); transform-origin: 374.711px 61.7721px;" id="eluh5ajh6izh" class="animable"></path><path d="M397.8,78.62h0l-3.2-.18a.25.25,0,0,1-.23-.27.23.23,0,0,1,.26-.23l3.2.18a.26.26,0,0,1,.24.27A.25.25,0,0,1,397.8,78.62Z" style="fill: rgb(38, 50, 56); transform-origin: 396.22px 78.2794px;" id="el26wp6xx10qpi" class="animable"></path><path d="M397,80.09h0l-1.63-.27a.25.25,0,0,1-.21-.29.26.26,0,0,1,.29-.2l1.63.27a.25.25,0,0,1,.21.29A.26.26,0,0,1,397,80.09Z" style="fill: rgb(38, 50, 56); transform-origin: 396.225px 79.71px;" id="elfhww9gw0ahh" class="animable"></path><path d="M398.54,81.78h-.08l-2.75-.88a.25.25,0,0,1-.16-.32.26.26,0,0,1,.32-.16l2.74.88a.25.25,0,0,1,.16.32A.25.25,0,0,1,398.54,81.78Z" style="fill: rgb(38, 50, 56); transform-origin: 397.16px 81.0944px;" id="elhpeg4o4sgeh" class="animable"></path><path d="M397.12,83.65a.22.22,0,0,1-.11,0l-1.19-.54a.25.25,0,0,1-.12-.33.26.26,0,0,1,.33-.13l1.19.55a.25.25,0,0,1,.12.33A.24.24,0,0,1,397.12,83.65Z" style="fill: rgb(38, 50, 56); transform-origin: 396.52px 83.1445px;" id="el96ia6doy1zs" class="animable"></path><path d="M398.63,83.07l-.09,0-1.76-.7a.27.27,0,0,1-.14-.33.26.26,0,0,1,.33-.14l1.75.71a.24.24,0,0,1,.14.32A.25.25,0,0,1,398.63,83.07Z" style="fill: rgb(38, 50, 56); transform-origin: 397.753px 82.4767px;" id="el3qc1l9836yc" class="animable"></path><path d="M397.12,86.6a.23.23,0,0,1-.17-.07l-2.24-2.1a.25.25,0,0,1,.34-.36l2.25,2.1a.25.25,0,0,1,0,.35A.27.27,0,0,1,397.12,86.6Z" style="fill: rgb(38, 50, 56); transform-origin: 396.013px 85.3119px;" id="el5mfj736mn1" class="animable"></path><path d="M377.05,89.91c.17.18.69,0,1.16-.46s.71-.93.54-1.12-.69,0-1.16.46S376.88,89.73,377.05,89.91Z" style="fill: rgb(38, 50, 56); transform-origin: 377.9px 89.1179px;" id="elvr9oir8ane" class="animable"></path><path d="M377.23,90.48h0a.7.7,0,0,1-.51-.23h0a.69.69,0,0,1-.19-.53,2,2,0,0,1,.75-1.29c.72-.68,1.47-.85,1.86-.44s.16,1.16-.56,1.83A2.2,2.2,0,0,1,377.23,90.48Zm.19-.91Z" style="fill: rgb(38, 50, 56); transform-origin: 377.928px 89.1247px;" id="el51ihpbhzcyc" class="animable"></path><path d="M369.81,84.09c.22.11.63-.27.91-.84s.34-1.13.11-1.24-.63.26-.92.84S369.58,84,369.81,84.09Z" style="fill: rgb(38, 50, 56); transform-origin: 370.316px 83.0498px;" id="elwiod1gg7hrs" class="animable"></path><path d="M369.89,84.6a.6.6,0,0,1-.3-.07.74.74,0,0,1-.37-.43,2.13,2.13,0,0,1,.24-1.47c.44-.89,1.08-1.32,1.59-1.07s.56,1,.12,1.91a2.06,2.06,0,0,1-1,1.09A.82.82,0,0,1,369.89,84.6Zm.14-1Z" style="fill: rgb(38, 50, 56); transform-origin: 370.324px 83.045px;" id="elimos0iwv9sm" class="animable"></path><path d="M383.43,82.2a.51.51,0,0,1-.4-.2.5.5,0,0,1,.11-.7c.89-.66,3.91-2.76,5.26-2.09a1.24,1.24,0,0,1,.66,1.22.5.5,0,0,1-.49.51h0a.51.51,0,0,1-.5-.5c0-.13,0-.29-.1-.33-.55-.27-2.63.81-4.23,2A.47.47,0,0,1,383.43,82.2Z" style="fill: rgb(38, 50, 56); transform-origin: 386px 80.6404px;" id="el54llov9fh9o" class="animable"></path><path d="M374.28,77.39a.49.49,0,0,1-.3-.1.51.51,0,0,1-.11-.7c2-2.69,1.17-4.65,1.13-4.73a.52.52,0,0,1,.26-.66.51.51,0,0,1,.66.26c0,.1,1.08,2.54-1.24,5.72A.48.48,0,0,1,374.28,77.39Z" style="fill: rgb(38, 50, 56); transform-origin: 374.974px 74.2755px;" id="ellpkop1b32w" class="animable"></path><path d="M213.56,459a3.45,3.45,0,0,0-.71,5.24,1.9,1.9,0,0,0,.22.2c.53.38,3.32,2.59,11,6.41s26.6,7.05,38,8.63,21-2.4,23.84-3.38,6-3.2,10.45-5,6.52-3.67,5.16-4.69a10.8,10.8,0,0,0-6.82-1.63c-2.5.29-3,.77-4.13,3.33s-3.6,6.22-7.08,6.21-9.95,1-19.31-3.67-21-11.43-32.08-13C224.09,456.59,217,456.91,213.56,459Z" style="fill: #46F1DB; transform-origin: 256.942px 468.453px;" id="el6lhu2exiu2q" class="animable"></path><path d="M267.47,480.39A39.48,39.48,0,0,1,262,480c-6.75-.94-29.45-4.32-38.2-8.69A76.58,76.58,0,0,1,213,465l-.18-.13a3.3,3.3,0,0,1-.3-.27,4,4,0,0,1,.81-6h0c3.36-2.09,10.25-2.6,18.9-1.39,9.54,1.34,19.39,6.42,28.08,10.9l4.15,2.12a32.55,32.55,0,0,0,17.44,3.66c.61,0,1.16,0,1.65,0h0c3.7,0,6-4.52,6.61-5.91,1.16-2.61,1.76-3.31,4.53-3.63a11.37,11.37,0,0,1,7.18,1.73,1.39,1.39,0,0,1,.6,1.3c-.21,1.63-3.31,3.21-5.87,4.25a62.71,62.71,0,0,0-5.88,2.84,37.47,37.47,0,0,1-4.59,2.17l-.76.27A51.52,51.52,0,0,1,267.47,480.39Zm-43.76-22.81c-4.41,0-7.9.64-9.89,1.88h0a3,3,0,0,0-.61,4.48.76.76,0,0,0,.15.13l.19.14a75.91,75.91,0,0,0,10.72,6.23c8.62,4.29,31.18,7.66,37.89,8.59,10.44,1.45,19.44-1.85,22.83-3.09l.78-.27a37.6,37.6,0,0,0,4.46-2.12,64.59,64.59,0,0,1,6-2.87c3.51-1.43,5.17-2.77,5.26-3.46,0-.07,0-.2-.21-.37a10.32,10.32,0,0,0-6.46-1.53c-2.26.26-2.64.57-3.73,3-.68,1.53-3.22,6.51-7.53,6.51h-.06c-.47,0-1,0-1.56,0A33.76,33.76,0,0,1,264,471.13c-1.35-.67-2.74-1.39-4.17-2.13-8.61-4.44-18.38-9.48-27.76-10.79A61,61,0,0,0,223.71,457.58ZM213.56,459h0Z" style="fill: rgb(38, 50, 56); transform-origin: 256.997px 468.478px;" id="elb7g3xd9gmtg" class="animable"></path><path d="M235.9,458.45s7.56-8.55,10.17-7.14.51,7.93-.35,8.69-2.88.56-2.88.56Z" style="fill: #46F1DB; transform-origin: 241.618px 455.868px;" id="elisaw5dorr4l" class="animable"></path><path d="M243.43,461.08c-.33,0-.57,0-.64,0l-7-2.14a.5.5,0,0,1-.34-.34.54.54,0,0,1,.11-.47c1.31-1.47,8-8.76,10.78-7.23a3.13,3.13,0,0,1,1.48,2.62c.29,2.61-1,6.21-1.74,6.87A4.19,4.19,0,0,1,243.43,461.08Zm-.49-1a4.19,4.19,0,0,0,2.45-.45,10.91,10.91,0,0,0,1.41-6,2.29,2.29,0,0,0-1-1.86c-1.47-.8-6,3.12-9,6.45Z" style="fill: rgb(38, 50, 56); transform-origin: 241.649px 455.891px;" id="ele99wt0m5r2a" class="animable"></path><path d="M236.6,475s1.39,3.77.51,5.56-6.5,5.78-8.13,3.14,2.07-10.2,2.07-10.2Z" style="fill: #46F1DB; transform-origin: 232.984px 479.039px;" id="elzzo04xtu2ii" class="animable"></path><path d="M230.69,485.11a2.39,2.39,0,0,1-2.14-1.12c-1.72-2.8,1.66-9.88,2-10.68a.51.51,0,0,1,.58-.26l5.55,1.5a.48.48,0,0,1,.34.31c.06.16,1.45,4,.49,5.95-.76,1.54-4.2,4.18-6.7,4.29Zm.63-11c-1.06,2.29-3.06,7.48-1.91,9.34a1.38,1.38,0,0,0,1.41.64c2.16-.1,5.28-2.59,5.84-3.73s-.06-3.77-.45-4.93Z" style="fill: rgb(38, 50, 56); transform-origin: 232.956px 479.073px;" id="elkpazn3ciaf" class="animable"></path><path d="M253.84,478.39s1.49,2.15,1.27,3.45-1.59,3-2.33,2.29-1.66-6.33-1.66-6.33Z" style="fill: #46F1DB; transform-origin: 253.126px 481.049px;" id="el3busoxmrnpm" class="animable"></path><path d="M253.17,484.79a1.07,1.07,0,0,1-.73-.29c-.81-.74-1.59-5.26-1.81-6.62a.5.5,0,0,1,.15-.45.49.49,0,0,1,.45-.12l2.71.59a.5.5,0,0,1,.31.2c.16.24,1.6,2.36,1.35,3.82a3.93,3.93,0,0,1-2,2.79A1.24,1.24,0,0,1,253.17,484.79Zm-1.43-6.35c.42,2.42,1,5,1.37,5.32,0,0,0,.05.15,0a3,3,0,0,0,1.35-2c.15-.82-.66-2.28-1.08-2.92Z" style="fill: rgb(38, 50, 56); transform-origin: 253.126px 481.043px;" id="elqr0apa95ypm" class="animable"></path><path d="M255,471.89s3.88,4.26,7.39,5.64,12.06-.95,12.06-.95S260.49,475.21,255,471.89Z" style="fill: #46F1DB; transform-origin: 264.725px 474.928px;" id="eli4ogh07cnu" class="animable"></path><path d="M265.4,478.46a9.14,9.14,0,0,1-3.23-.47c-3.57-1.4-7.41-5.59-7.57-5.77a.49.49,0,0,1,0-.65.51.51,0,0,1,.65-.11c5.36,3.23,19.1,4.6,19.23,4.62a.49.49,0,0,1,.45.45.51.51,0,0,1-.36.53A42.08,42.08,0,0,1,265.4,478.46Zm-8-4.86a18.83,18.83,0,0,0,5.1,3.46c2.09.82,6.2.23,9-.33A70,70,0,0,1,257.44,473.6Z" style="fill: rgb(38, 50, 56); transform-origin: 264.704px 474.927px;" id="elc1ya7cudyku" class="animable"></path><path d="M298.88,468.58a.23.23,0,0,1-.2-.11.25.25,0,0,1,.06-.35l2.65-1.88a.25.25,0,1,1,.29.41L299,468.53A.24.24,0,0,1,298.88,468.58Z" style="fill: rgb(38, 50, 56); transform-origin: 300.21px 467.387px;" id="eliyhags4mf6n" class="animable"></path><path d="M297.2,468.38a.25.25,0,0,1-.19-.09.24.24,0,0,1,0-.35l1.87-1.49a.25.25,0,0,1,.35,0,.26.26,0,0,1,0,.36l-1.87,1.48A.3.3,0,0,1,297.2,468.38Z" style="fill: rgb(38, 50, 56); transform-origin: 298.118px 467.379px;" id="elakmg351yy0k" class="animable"></path><path d="M295.58,467.33a.28.28,0,0,1-.15,0,.25.25,0,0,1-.06-.35l1.48-2.1a.25.25,0,0,1,.35-.06.25.25,0,0,1,.06.35l-1.48,2.1A.26.26,0,0,1,295.58,467.33Z" style="fill: rgb(38, 50, 56); transform-origin: 296.315px 466.057px;" id="eln6i03enyer" class="animable"></path><path d="M293.45,468.15l-.09,0a.24.24,0,0,1-.14-.32l.85-2.16a.24.24,0,0,1,.32-.14.25.25,0,0,1,.14.32l-.84,2.16A.26.26,0,0,1,293.45,468.15Z" style="fill: rgb(38, 50, 56); transform-origin: 293.874px 466.83px;" id="el0ywum4or833i" class="animable"></path><path d="M292.5,468.06h-.07a.26.26,0,0,1-.17-.32l.79-2.51a.25.25,0,0,1,.31-.16.25.25,0,0,1,.17.31l-.79,2.51A.25.25,0,0,1,292.5,468.06Z" style="fill: rgb(38, 50, 56); transform-origin: 292.895px 466.56px;" id="elp6tyk08su6" class="animable"></path><path d="M243.14,459.71a.25.25,0,0,1,0-.5L246,459a.26.26,0,0,1,.26.24.25.25,0,0,1-.23.26l-2.83.18Z" style="fill: rgb(38, 50, 56); transform-origin: 244.575px 459.355px;" id="elnfjf8o51e6d" class="animable"></path><path d="M242.24,458.76a.26.26,0,0,1-.24-.19.25.25,0,0,1,.18-.3l4.36-1.15a.26.26,0,0,1,.31.18.25.25,0,0,1-.18.3l-4.36,1.15Z" style="fill: rgb(38, 50, 56); transform-origin: 244.425px 457.936px;" id="el701wnt3ragf" class="animable"></path><path d="M243,456.88a.25.25,0,0,1-.24-.17.26.26,0,0,1,.16-.32l2.84-.94a.24.24,0,0,1,.31.16.23.23,0,0,1-.16.31l-2.83.95Z" style="fill: rgb(38, 50, 56); transform-origin: 244.418px 456.158px;" id="elutnwoqlbv3i" class="animable"></path><path d="M245.4,453.88a.25.25,0,0,1-.12-.47l1.45-.79a.25.25,0,0,1,.34.11.24.24,0,0,1-.1.33l-1.45.79Z" style="fill: rgb(38, 50, 56); transform-origin: 246.124px 453.236px;" id="elo6dlpg48mh" class="animable"></path><path d="M242.55,455.59a.25.25,0,0,1-.22-.12.25.25,0,0,1,.09-.34l2.1-1.27a.25.25,0,0,1,.34.08.25.25,0,0,1-.08.35l-2.1,1.26A.22.22,0,0,1,242.55,455.59Z" style="fill: rgb(38, 50, 56); transform-origin: 243.599px 454.707px;" id="elccaz30bgsq" class="animable"></path><path d="M241.42,454.65a.25.25,0,0,1-.14-.45l2.71-1.89a.25.25,0,0,1,.34.07.24.24,0,0,1-.06.34l-2.71,1.89A.23.23,0,0,1,241.42,454.65Z" style="fill: rgb(38, 50, 56); transform-origin: 242.778px 453.461px;" id="elsm65o8ud8g" class="animable"></path><path d="M236.58,481.46a.27.27,0,0,1-.24-.17l-1.08-3a.25.25,0,0,1,.15-.32.26.26,0,0,1,.32.15l1.08,3a.24.24,0,0,1-.15.32Z" style="fill: rgb(38, 50, 56); transform-origin: 236.037px 479.709px;" id="el5p2zbdr9xfe" class="animable"></path><path d="M234.9,481.27a.25.25,0,0,1-.24-.2l-.39-1.6a.25.25,0,0,1,.49-.12l.39,1.61a.25.25,0,0,1-.19.3Z" style="fill: rgb(38, 50, 56); transform-origin: 234.71px 480.214px;" id="eliwvfxiy6i4i" class="animable"></path><path d="M234,483.38a.25.25,0,0,1-.24-.23l-.27-2.87a.25.25,0,0,1,.22-.27.25.25,0,0,1,.28.23l.26,2.87a.23.23,0,0,1-.22.27Z" style="fill: rgb(38, 50, 56); transform-origin: 233.871px 481.694px;" id="elnkfb6aelmfs" class="animable"></path><path d="M231.69,482.81h0a.24.24,0,0,1-.24-.26l0-1.3a.26.26,0,0,1,.25-.25h0a.25.25,0,0,1,.24.26l0,1.31A.26.26,0,0,1,231.69,482.81Z" style="fill: rgb(38, 50, 56); transform-origin: 231.695px 481.905px;" id="elq8b78x7omo" class="animable"></path><path d="M232.82,484a.24.24,0,0,1-.25-.24l0-1.89a.25.25,0,0,1,.24-.26h0a.25.25,0,0,1,.25.25l0,1.89a.25.25,0,0,1-.24.25Z" style="fill: rgb(38, 50, 56); transform-origin: 232.815px 482.805px;" id="el7yprqa99fra" class="animable"></path><path d="M229,484l-.09,0a.25.25,0,0,1-.14-.32l1-2.89a.25.25,0,0,1,.47.17l-1,2.89A.25.25,0,0,1,229,484Z" style="fill: rgb(38, 50, 56); transform-origin: 229.503px 482.316px;" id="el1bmcpu4d24m" class="animable"></path><path d="M217.82,466.67c-.1.23.29.62.87.88s1.14.28,1.24.06-.29-.63-.87-.89S217.92,466.44,217.82,466.67Z" style="fill: rgb(38, 50, 56); transform-origin: 218.875px 467.136px;" id="elmehllquvgyd" class="animable"></path><path d="M219.55,468.26h-.08a2.78,2.78,0,0,1-1-.25,2.08,2.08,0,0,1-1.13-1,.73.73,0,0,1,0-.57c.23-.52,1-.6,1.9-.2s1.36,1,1.13,1.55A.84.84,0,0,1,219.55,468.26Z" style="fill: rgb(38, 50, 56); transform-origin: 218.855px 467.125px;" id="el8ss5kx739ct" class="animable"></path><path d="M220.33,457.72c0,.25.49.48,1.13.51s1.17-.14,1.18-.39-.49-.48-1.13-.51S220.34,457.47,220.33,457.72Z" style="fill: rgb(38, 50, 56); transform-origin: 221.485px 457.78px;" id="el1q7anq32m1d" class="animable"></path><path d="M221.62,458.74h-.19c-1-.05-1.63-.47-1.6-1,0-.2.11-.56.7-.75a2.9,2.9,0,0,1,1-.11c1,.05,1.63.47,1.6,1,0,.2-.12.56-.7.75A2.57,2.57,0,0,1,221.62,458.74Z" style="fill: rgb(38, 50, 56); transform-origin: 221.48px 457.807px;" id="ell1zl3qwo3hc" class="animable"></path><path d="M231.05,474a.5.5,0,0,1-.2-1c.12-.05.26-.13.27-.23,0-.6-1.78-2.09-3.5-3.1a.49.49,0,0,1-.18-.68.51.51,0,0,1,.69-.18c1,.56,4.07,2.51,4,4a1.24,1.24,0,0,1-.86,1.09A.45.45,0,0,1,231.05,474Z" style="fill: rgb(38, 50, 56); transform-origin: 229.751px 471.376px;" id="el3qhl36f57b9" class="animable"></path><path d="M230.53,459.72a8.93,8.93,0,0,1-1.94-.23.49.49,0,0,1-.37-.6.5.5,0,0,1,.6-.38c3.24.75,4.73-.76,4.79-.82a.51.51,0,0,1,.71,0,.5.5,0,0,1,0,.71A5.33,5.33,0,0,1,230.53,459.72Z" style="fill: rgb(38, 50, 56); transform-origin: 231.336px 458.637px;" id="el0ezjf1sp3aa" class="animable"></path></g><g id="freepik--Shadow--inject-267" class="animable" style="transform-origin: 301.6px 307.408px;"><g id="elkde9j6opqrk"><path d="M444.62,174.78c-2.32,3.27-3.23,3.27-4.27,3.59s-4.76-.08-4.76-.08l.8-1s.72-.63,1.6-1.43,1.49-1.59.53-2.95-2.45.07-3.41.95-3.51,1.2-6.86,3.51-2.88,4.32-3.68,4.95a72.23,72.23,0,0,1-7.42,3.68c-1.2.48-12.25,2.64-24.54,4.64s-14.14,3.79-15.26,4-17.17,2.16-20.44,3l-.36.09h0a26.62,26.62,0,0,1-9.64.56c2.79-3.78,5.17-8.89,3.92-12.86-1.88-6-5.64-5.47-5.64-5.47s1.37.51.69,2.73-3.76,3.76-5.81,2.91-.51-4.27,2.39-5.81,6.15-1.71,6.15-6-7.86-9.91-12.3-9.74S329,167,324,166.67s-4.78-7.86-2.9-9.57,3.76-7.69.68-12.47a9.58,9.58,0,0,0-8.2-4.44s4.79-2.56,8.89.51,2.56,3.76,3.58,6.84,6.15.68,6.15.68-3.76.68-4.44-2.91-1.88-8.19-8.2-9.56-7.68.51-10.25,2.73-4.1.69-9.73,2.22-4.61,5.81-4.61,5.81,0,3.08-3.93,3.76-8-2.39-12.3,2.73,1,10.08,1.54,12.47,0,2.39-11.28,6.49-8.71,10.25-5.81,14,4.79,4.95,1,6.66-2.05-3.07-2.05-3.07-2.56-.86-3.76,2.39a7.18,7.18,0,0,0,.38,6.14c-4.86.51-7.6.51-10,.12h0c-.84-.14-1.63-.32-2.46-.54-3.27-.88-19.32-2.8-20.44-3s-3-2-15.26-4-23.34-4.16-24.54-4.64l-.24-.1-.1-.05-.22-.09-.13-.06-.28-.12-.11-.06-.41-.18-.22-.1-.25-.12-.26-.12-.24-.11a2.1,2.1,0,0,1-.26-.13,41.41,41.41,0,0,1-4.7-2.44c-.8-.63-.32-2.63-3.68-4.95s-5.91-2.63-6.86-3.51-2.45-2.31-3.41-.95-.35,2.15.53,2.95,1.6,1.43,1.6,1.43l.8,1s-3.73.4-4.76.08-1.95-.32-4.27-3.59-2.07-1.36-2.15,0,1.12,3.51,1.6,4.23a7.44,7.44,0,0,0,2.15,2.56,2.59,2.59,0,0,1,.37.37c-.61,1.06-1.11,2.2-.9,2.83.46,1.38,2.18,1.84,2.64,1.38.35,2.18,1.15,2.76,1.73,2.64.18,0,.39-.43.62-1a7.49,7.49,0,0,1,.69.73,1.85,1.85,0,0,0,.07,1.51c.69,1,1.61,1,1.84.68a4.82,4.82,0,0,0,.28-.63,12.26,12.26,0,0,0,1.84.4,27,27,0,0,0,5.83.24,110,110,0,0,1,15.81,5c7.43,3.11,11.51,7.55,22,10.7a48.48,48.48,0,0,0,10.52,1.89s10.54,3.43,19.57,6,10.34,1.78,16.33,2.41l1.27.14.27,0,1,.12.18,0c1.22.15,2.29.31,3.23.51h0a12.06,12.06,0,0,1,2.48.79,5.91,5.91,0,0,1,2.46,2c.85,1.18,2.28,5.76,3.71,10.76h0c.21.72.41,1.46.62,2.19l0,.13c.08.31.17.61.25.92l.1.33.19.7c0,.15.09.3.13.46l.15.56.15.52c0,.13.07.25.1.38.33,1.17.64,2.29.92,3.32v0l.09.35.05.15c0,.1.05.2.08.3l.09.32.05.2.09.29a2.29,2.29,0,0,0,.08.28l.05.19.08.28c0,.08.05.16.07.24l.05.17c0,.1.06.19.08.29l.07.22,0,.12.09.28.06.2,0,.07c0,.11.06.2.09.3s0,.1.05.15v0l.13.41a6.39,6.39,0,0,1,.2.73c0,.13.06.27.09.41l.06.35c0,.2.06.41.08.61s0,.12,0,.18c0,.25.05.5.06.76h0a29.56,29.56,0,0,1-.57,7.07h0c-.05.25-.11.5-.16.75l-.09.35c0,.14-.07.28-.1.42s-.07.24-.1.36-.07.25-.11.37a3.58,3.58,0,0,1-.11.35,2.11,2.11,0,0,1-.1.3l0,.07c0,.1-.07.21-.11.31a2.77,2.77,0,0,1-.1.26c-.05.14-.1.27-.16.4l-.12.28v0c-.07.14-.13.28-.2.41a.83.83,0,0,0-.07.13l-.05.09c-.11.18-.21.36-.32.51l-.24.33,0,0,0,0-.07.09c-.21.3-.45.66-.71,1.07l-.06.09c-.28.44-.58.94-.91,1.5l0,.05A87.73,87.73,0,0,0,267,280.57h0c-1.18,3.55-2.34,7.59-3.42,12.19-.14.59-.27,1.2-.39,1.82h0c-3.82,19.28.84,47.23,2,53.4,1.23,6.36,2.87,12.93,2.87,12.93h0l-.05.05-.11.12,0,.05-.21.24,0,0-.27.36,0,0c-.1.14-.21.29-.32.47l0,0q-.18.26-.36.57l0,0a7,7,0,0,0-.37.67l0,.05c-.12.23-.24.48-.35.75a.3.3,0,0,0,0,.08c-.11.26-.22.54-.33.83,0,0,0,.07,0,.11-.11.29-.2.6-.3.92l0,.13c-.09.31-.16.64-.24,1,0,.07,0,.13,0,.2-.07.32-.12.67-.17,1a1.87,1.87,0,0,0,0,.25c-.05.34-.08.7-.1,1.07a3,3,0,0,0,0,.31c0,.36,0,.74,0,1.13,0,.12,0,.24,0,.36,0,.4,0,.81.07,1.23,0,.13,0,.25,0,.38.06.55.13,1.12.24,1.71,1.64,9.44,10.67,19.09,11.9,22.17a62.43,62.43,0,0,1,3.7,12.93c.82,5.13,1.43,17.24,5.95,20.12s8-1.85,7.19-8c-.42-3.08-2.25-6.15-4-9.24-.66-1.16-1.31-2.33-1.87-3.49-.19-.39-.36-.79-.52-1.18a16.29,16.29,0,0,1-.8-2.35,10.78,10.78,0,0,1-.35-2.38c-.21-6.36,3.84-17.49,3.43-25.29s-2.05-11.09-.62-14.37c.24-.53.52-1.15.82-1.83a1,1,0,0,1,.07-.15c.08-.2.17-.4.26-.61l.08-.18.27-.65c0-.07.05-.14.08-.2.09-.23.19-.47.28-.72,0-.06,0-.13.08-.19.09-.25.19-.51.28-.78a1.18,1.18,0,0,0,.07-.2c.1-.27.2-.55.29-.84l.06-.19c.1-.3.2-.61.29-.93,0,0,0-.1,0-.15.1-.34.19-.68.29-1,0,0,0-.06,0-.09a42.69,42.69,0,0,0,1.34-8.42h0c.05-.69.08-1.39.1-2.13.14-7,.88-18.83,1.52-25.68h0c0-.36.07-.7.1-1v-.11c0-.3.06-.59.09-.86v-.1c.07-.6.13-1.14.19-1.59v0c0-.2.05-.37.07-.54l0-.14c0-.12,0-.22.05-.32l0-.13a2.25,2.25,0,0,0,.05-.22l0-.08a.44.44,0,0,1,.06-.16c.62-.83,5.55-.42,5.55-.42h.13l.13.05h0l.17.1c.46.31,1.16,1.17,1.64,3.54h0a36.31,36.31,0,0,1,.57,7.17c0,9.29.87,23.92,2.84,34.46,0,.18.07.36.11.54.08.45.17.9.26,1.33s.14.64.21.95.14.63.21.92c.15.63.31,1.25.47,1.83,2.87,10.26,3.49,10.67,2,18.68-.18,1-.33,2.13-.45,3.37s-.21,2.59-.25,4a80.45,80.45,0,0,0,.84,14.34c.26,1.68.57,3.36.95,5s.83,3.29,1.36,4.87c.26.8.54,1.57.84,2.34s.61,1.51.95,2.24h0a8.33,8.33,0,0,1,.32.8,1.43,1.43,0,0,1,.08.22c.09.26.18.53.26.82l0,.09c.09.32.17.66.25,1,0,.07,0,.15.05.22.07.32.13.66.2,1a.36.36,0,0,0,0,.1c.06.4.13.81.19,1.22,0,.05,0,.09,0,.14.06.4.11.82.16,1.24V426c.1.93.18,1.89.25,2.89.46,7,.09,15.17.09,19.35,0,6.57-1,9.65-2.67,16.42s-2.87,8.62-2.87,11.7,3.69,2.47,3.69,2.47.83,1,4.11.61,8.83-7.8,8.42-12.52-1.76-20.35-1.23-22.42c.12-.46.24-1,.38-1.49.08-.32.16-.66.25-1s.12-.48.19-.73.1-.42.16-.64c.11-.44.22-.91.34-1.4s.25-1,.39-1.57c.27-1.11.56-2.34.89-3.71.24-1,.51-2.15.79-3.36,1.32-5.65,3.06-13.33,5.44-24.13a42.68,42.68,0,0,0,1-11.41v-.13a37,37,0,0,0-.4-3.82l-.06-.35A45.44,45.44,0,0,0,333.9,385c-1.19-4-2.62-7.34-3.18-10.59a15.28,15.28,0,0,1-.22-1.77,13.05,13.05,0,0,1,.24-3.56c.06-.28.13-.58.2-.89,0-.1,0-.21.07-.31l.15-.69c0-.11,0-.22.08-.33s.11-.53.18-.8l.06-.25c2.64-11.47,8.5-34.79,8.5-52.77,0-11.4-.94-19.36-2.29-25.32v0q-.33-1.46-.69-2.76l0-.09c-.24-.85-.48-1.65-.72-2.41l-.05-.13c-.24-.74-.48-1.44-.73-2.11a1.34,1.34,0,0,0-.07-.18l-.27-.72h0l-.09-.21v0q-.18-.45-.36-.87v0l-.09-.2-.36-.85c-.28-.64-.58-1.26-.9-1.87a3,3,0,0,0-.16-.31c-.3-.57-.61-1.14-.93-1.7l-.26-.46-.84-1.43c-.42-.7-.84-1.41-1.25-2.14h0a30.86,30.86,0,0,1-4.49-12.61c-1-9.24,2.06-13.35,3.91-22.58.13-.66.26-1.29.39-1.9A80,80,0,0,1,333.11,220c1.87-2.24,5-2.64,10.66-3.25,6-.63,7.31.14,16.33-2.41s19.57-6,19.57-6a48.48,48.48,0,0,0,10.52-1.89c10.5-3.15,14.58-7.59,22-10.7a110,110,0,0,1,15.81-5,27,27,0,0,0,5.83-.24c.51-.08.94-.16,1.31-.25a2.72,2.72,0,0,0,.23.48c.23.35,1.14.35,1.83-.68a1.44,1.44,0,0,0,.18-1c.25-.26.48-.55.77-.87.16.33.3.55.43.57.58.12,1.38-.46,1.73-2.64.46.46,2.18,0,2.64-1.38a3.81,3.81,0,0,0-.66-2.4,3.78,3.78,0,0,1,.72-.8,7.44,7.44,0,0,0,2.15-2.56c.48-.72,1.68-2.87,1.6-4.23S446.93,171.5,444.62,174.78ZM342.8,168.37s3.76,1.88,3.93,4.62-3.41,4.44-3.41,4.44a5.68,5.68,0,0,0-1-5.81c-2.39-2.9-6.66-3.93-6.66-3.93S340.41,167.35,342.8,168.37Zm-79.08,15.72c-1.2-3.59,2.56-6.66,2.56-6.66a13.13,13.13,0,0,0,.85,5.12c1,2.56,2.91,3.59,1.37,4.79S264.91,187.68,263.72,184.09Z" style="opacity: 0.2; transform-origin: 301.6px 307.408px;" class="animable" id="elaytbfa1ecut"></path></g></g><g id="freepik--Character--inject-267" class="animable" style="transform-origin: 258.894px 260.191px;"><path d="M314.17,123.15c-2.11-6.71-6.33-6.14-6.33-6.14s1.53.58.76,3.07-4.22,4.22-6.52,3.26-.58-4.79,2.68-6.52,6.91-1.92,6.91-6.72S302.85,99,297.85,99.16,289.6,102.42,284,102s-5.38-8.83-3.27-10.75,4.22-8.64.77-14a10.76,10.76,0,0,0-9.21-5s5.37-2.88,10,.57,2.88,4.23,4,7.68,6.91.77,6.91.77-4.22.77-5-3.26S286.15,68.83,279,67.3s-8.63.57-11.51,3.07-4.61.77-10.94,2.49-5.18,6.53-5.18,6.53,0,3.46-4.42,4.22-9-2.68-13.82,3.07,1.15,11.33,1.73,14,0,2.68-12.67,7.29-9.79,11.52-6.52,15.74,5.37,5.56,1.15,7.48-2.31-3.45-2.31-3.45-2.88-1-4.22,2.69-1.15,9.79,9.6,12.66,23.61-3.64,29.94,2.31,51.25.19,55.28-2.88S316.28,129.87,314.17,123.15Zm-92.51,2.11c-1.73,1.35-4,.39-5.38-3.64s2.88-7.49,2.88-7.49a14.76,14.76,0,0,0,1,5.76C221.27,122.77,223.38,123.92,221.66,125.26ZM305.15,104s4.22,2.11,4.41,5.18-3.84,5-3.84,5a6.34,6.34,0,0,0-1.15-6.52c-2.68-3.27-7.48-4.42-7.48-4.42S302.46,102.81,305.15,104Z" style="fill: rgb(38, 50, 56); transform-origin: 262.132px 107.384px;" id="ele1rjha3gtda" class="animable"></path><path d="M265.2,148.55c-7.44,0-13.53-.76-15.67-2.77-3.39-3.18-9-2.59-14.94-2-4.91.52-10,1.06-14.79-.22s-8.17-3.44-9.66-6.31a8.76,8.76,0,0,1-.28-7c1.5-4.05,4.82-3,4.85-3a.49.49,0,0,1,.31.64c-.35,1-.63,2.61-.14,3.06.27.25.9.16,1.77-.23,1.26-.57,1.93-1.09,2-1.59.18-.74-.74-1.86-2-3.41-.43-.52-.89-1.09-1.38-1.73-2.52-3.25-3.4-6.25-2.63-8.91.9-3.11,4.06-5.66,9.38-7.6l2.39-.87c10.41-3.77,10.39-3.85,10-5.85a10.54,10.54,0,0,0-1.17-2.44c-1.69-3-4.25-7.44-.45-12,3.47-4.16,7-3.73,10.07-3.35a13.79,13.79,0,0,0,4,.11c3.72-.65,4-3.3,4-3.69-.11-.66-.72-5.34,5.56-7.05a26.92,26.92,0,0,1,6.24-.94c1.87-.1,3-.15,4.5-1.45l.72-.63c2.51-2.24,4.49-4,11.23-2.55,7.8,1.69,9,7.84,9.6,11.14.67,3.51,4.26,2.9,4.41,2.87a.49.49,0,0,1,.56.34.48.48,0,0,1-.26.6c-.15.07-3.71,1.71-6,.73a2.86,2.86,0,0,1-1.62-1.79,11.79,11.79,0,0,1-.53-2.63c-.17-1.57-.27-2.52-3.32-4.8A8.59,8.59,0,0,0,274.63,72,11.11,11.11,0,0,1,282,77c3.64,5.67,1.35,12.65-.85,14.65-1.08,1-1.66,4.23-.77,6.8a4.17,4.17,0,0,0,3.73,3.08,17.83,17.83,0,0,0,7.57-1.42,20.57,20.57,0,0,1,6.2-1.46c3-.13,7.63,2.09,10.91,5.25,2.21,2.12,3.42,4.32,3.42,6.19,0,4.09-2.46,5.12-5.08,6.21-.69.29-1.4.59-2.09,1-2.22,1.18-3.53,3.28-3.48,4.55a1.13,1.13,0,0,0,.75,1.07,4.18,4.18,0,0,0,3.3-.26,4.74,4.74,0,0,0,2.56-2.68c.59-2-.37-2.42-.48-2.46a.53.53,0,0,1-.31-.53.49.49,0,0,1,.43-.43c.19,0,4.66-.56,6.88,6.48,2.15,6.85-4.85,16.62-9.2,19.94C302.54,145.16,280.89,148.55,265.2,148.55Zm-23.72-6.23c3.42,0,6.47.6,8.73,2.73,2.59,2.43,13.1,3.11,28.12,1.81,13.5-1.16,24.81-3.42,26.52-4.72,4-3.08,10.83-12.52,8.84-18.84-1.28-4.08-3.32-5.31-4.61-5.66a3.56,3.56,0,0,1,0,2.59,5.71,5.71,0,0,1-3.09,3.3,5.16,5.16,0,0,1-4.11.28,2.12,2.12,0,0,1-1.35-2c-.09-1.86,1.63-4.22,4-5.47a22,22,0,0,1,2.18-1c2.49-1,4.46-1.86,4.46-5.29,0-1.59-1.1-3.54-3.12-5.47-3.05-2.94-7.43-5.07-10.18-5a19.29,19.29,0,0,0-5.9,1.4,18.57,18.57,0,0,1-8,1.48,5.11,5.11,0,0,1-4.6-3.75c-1-2.75-.47-6.5,1-7.87,2.06-1.88,3.89-8.38.68-13.37a10.18,10.18,0,0,0-8.76-4.76.52.52,0,0,1-.51-.36.49.49,0,0,1,.24-.58c.23-.12,5.71-3,10.52.62,3.24,2.43,3.51,3.61,3.72,5.49a10.34,10.34,0,0,0,.48,2.42,1.82,1.82,0,0,0,1.07,1.19,4.8,4.8,0,0,0,2.84.05,4.2,4.2,0,0,1-3-3.48c-.82-4.26-2.23-8.93-8.83-10.35-6.24-1.35-8,.19-10.36,2.32l-.72.64c-1.76,1.52-3.16,1.59-5.11,1.69a25.3,25.3,0,0,0-6,.91c-5.77,1.57-4.87,5.75-4.83,5.93a.36.36,0,0,1,0,.11s-.06,3.89-4.83,4.72a14.73,14.73,0,0,1-4.35-.11c-3.11-.38-6-.74-9.17,3-3.35,4-1.1,8,.55,10.87a11.25,11.25,0,0,1,1.28,2.72c.63,2.93,0,3.16-10.59,7l-2.4.87c-5,1.82-8,4.15-8.76,6.93-.68,2.34.15,5,2.46,8,.49.63.94,1.19,1.36,1.7,1.5,1.84,2.49,3.06,2.21,4.28-.2.85-1,1.53-2.61,2.27-1.29.59-2.26.61-2.86.06-.9-.84-.56-2.62-.29-3.58-.78-.06-2.26.17-3.11,2.47a7.75,7.75,0,0,0,.23,6.21c1.36,2.61,4.39,4.56,9,5.8s9.6.71,14.43.2A66.91,66.91,0,0,1,241.48,142.32Zm-21.37-16a2.79,2.79,0,0,1-.81-.12c-1.45-.43-2.69-2-3.49-4.43-1.44-4.31,2.85-7.88,3-8a.52.52,0,0,1,.55,0,.5.5,0,0,1,.27.47,14.37,14.37,0,0,0,.92,5.54,13.82,13.82,0,0,0,1.29,2.36c.82,1.25,1.59,2.44.09,3.6h0A3,3,0,0,1,220.11,126.33Zm-1.45-11c-1.08,1.19-2.76,3.57-1.9,6.14.69,2.08,1.72,3.46,2.83,3.79a1.88,1.88,0,0,0,1.76-.38h0c.71-.55.59-.87-.32-2.27a14.71,14.71,0,0,1-1.37-2.52A15.15,15.15,0,0,1,218.66,115.32Zm3,9.94h0Zm84.07-10.63a.54.54,0,0,1-.36-.14.5.5,0,0,1-.1-.57,5.82,5.82,0,0,0-1.08-6c-2.55-3.09-7.17-4.23-7.22-4.24a.5.5,0,0,1,.08-1c.23,0,5.53-.38,8.3.81h0c.19.09,4.48,2.28,4.69,5.6s-3.94,5.39-4.12,5.47A.41.41,0,0,1,305.73,114.63Zm-5.87-11a13.94,13.94,0,0,1,5.1,3.65,6.94,6.94,0,0,1,1.6,5.76c1.09-.75,2.61-2.12,2.5-3.88-.16-2.67-3.88-4.63-4.12-4.76A15.18,15.18,0,0,0,299.86,103.64Z" style="fill: rgb(38, 50, 56); transform-origin: 262.177px 107.396px;" id="ely75hlzagm6" class="animable"></path><path d="M240.7,110.17s-2.95-4.2-4.08-.22,2.49,7,3.74,7.94a6.83,6.83,0,0,0,2.5,1.14Z" style="fill: rgb(255, 255, 255); transform-origin: 239.632px 113.633px;" id="elshbz10qwq3" class="animable"></path><path d="M242.86,119.53h-.09a7.24,7.24,0,0,1-2.7-1.22c-1.24-.9-5.17-4.17-3.94-8.49.36-1.23.93-1.92,1.72-2,1.53-.26,3.09,1.88,3.26,2.13a.45.45,0,0,1,.08.17l2.16,8.85a.51.51,0,0,1-.49.62Zm-4.74-10.79H238c-.46.07-.75.77-.91,1.33-1.06,3.7,2.45,6.61,3.56,7.41a6.47,6.47,0,0,0,1.51.81l-1.93-7.91C239.8,109.79,238.81,108.74,238.12,108.74Z" style="fill: rgb(38, 50, 56); transform-origin: 239.628px 113.694px;" id="elrz3r41mo1p" class="animable"></path><path d="M273.17,110.17s2.95-4.2,4.09-.22-2.5,7-3.75,7.94A6.82,6.82,0,0,1,271,119Z" style="fill: rgb(255, 255, 255); transform-origin: 274.239px 113.618px;" id="elo78f1698jok" class="animable"></path><path d="M271,119.53a.52.52,0,0,1-.37-.16.51.51,0,0,1-.12-.46l2.16-8.85a.44.44,0,0,1,.07-.17c.18-.25,1.72-2.39,3.27-2.13.78.13,1.36.82,1.71,2,1.24,4.32-2.7,7.59-3.93,8.49a7.38,7.38,0,0,1-2.7,1.22Zm2.62-9.14-1.93,7.91a6.67,6.67,0,0,0,1.51-.81c1.1-.8,4.62-3.71,3.56-7.41-.16-.56-.45-1.26-.92-1.33C275.16,108.62,274.1,109.75,273.64,110.39Z" style="fill: rgb(38, 50, 56); transform-origin: 274.228px 113.634px;" id="elvxp822zn4ti" class="animable"></path><path d="M419.55,111.15c-2.6,3.68-3.62,3.68-4.79,4s-5.35-.09-5.35-.09l.9-1.16s.81-.72,1.79-1.62,1.68-1.78.6-3.31-2.75.08-3.83,1.07-3.94,1.34-7.71,4-3.23,4.84-4.13,5.56a81,81,0,0,1-8.34,4.13c-1.35.54-13.76,3-27.58,5.21s-15.88,4.26-17.14,4.53-19.29,2.43-23,3.41-6.73,1.26-14.27.45a60.47,60.47,0,0,0-20.16.82l-3.23,1.37a13.24,13.24,0,0,1-6.43,1,17,17,0,0,1-2.38-.38,9.89,9.89,0,0,1-6.69-7.38c-.46-3.23.23-4.38,1.61-7.61a45.16,45.16,0,0,0,3.69-15,26.68,26.68,0,0,0-1.29-10.79,34.12,34.12,0,0,0-5.57-11C262.16,83,253.54,83,248.79,85.64s-8.08,11.93-8.26,20a34.41,34.41,0,0,0,3.95,16.69c1.53,3.14,4.22,5.38,4.49,9.6s-3.86,8.25-5.92,8.88-.09,1.08-8.08-1.61-16.42-2.7-24-1.89-10.59.54-14.26-.45-21.72-3.14-23-3.41-3.33-2.29-17.15-4.53-26.23-4.67-27.57-5.21a80.18,80.18,0,0,1-8.35-4.13c-.89-.72-.35-3-4.12-5.56s-6.64-3-7.72-4-2.75-2.59-3.83-1.07-.39,2.41.6,3.31l1.79,1.62.9,1.16s-4.18.45-5.35.09-2.19-.36-4.79-4-2.33-1.52-2.42,0,1.26,3.95,1.79,4.76a8.47,8.47,0,0,0,2.43,2.87c1.61,1.26,2.51,4.94,4.57,6.64s1.53,2.78,5.75,3.41a30.34,30.34,0,0,0,6.55.27,123.2,123.2,0,0,1,17.76,5.65c8.35,3.5,12.93,8.49,24.73,12a54,54,0,0,0,11.82,2.12s11.85,3.86,22,6.73,11.62,2,18.35,2.71,10.23,1.17,12.29,4,7.22,23.75,8.75,28.24,0,14.36-2.25,17.41-9.06,14-14.13,35.69.46,54.9,1.84,62,3.23,14.54,3.23,14.54-5.54,5.3-3.69,15.91,12,21.46,13.38,24.92a70.13,70.13,0,0,1,4.15,14.53c.92,5.76,1.62,19.37,6.69,22.6s9-2.07,8.07-9-8.24-13.79-8.47-20.95,4.32-19.65,3.86-28.42-2.31-12.45-.69-16.14a50.45,50.45,0,0,0,5.3-21.69c.23-11.3,1.85-33.91,2.54-34.83s6.23-.46,6.23-.46,3-.23,3,12.23,1.38,33.44,4.61,45,3.92,12,2.31,21-1.32,27.58,4.76,40.68c3.17,6.84,2.16,25.39,2.16,32.78s-1.15,10.84-3,18.45-3.23,9.69-3.23,13.15,4.15,2.77,4.15,2.77.93,1.15,4.62.69,9.91-8.77,9.45-14.07-2-22.87-1.38-25.2c1.42-5.53,3.82-15,9.93-42.74,4.91-22.32-6.7-31.13-4.39-42s10.38-40.6,10.38-63-3.23-33-6.46-40.37-8.77-12.68-9.92-23.07,2.3-15,4.38-25.37A96.34,96.34,0,0,1,294.25,162c2.1-2.52,5.58-3,12-3.65,6.73-.71,8.21.16,18.35-2.71s22-6.73,22-6.73a54.12,54.12,0,0,0,11.83-2.12c11.8-3.54,16.38-8.53,24.72-12a123.14,123.14,0,0,1,17.77-5.65,30.34,30.34,0,0,0,6.55-.27c4.22-.63,3.68-1.7,5.74-3.41s3-5.38,4.58-6.64a8.53,8.53,0,0,0,2.42-2.87c.54-.81,1.88-3.23,1.8-4.76S422.15,107.48,419.55,111.15Z" style="fill: rgb(255, 255, 255); transform-origin: 258.855px 268.705px;" id="ellcqt2cmao2m" class="animable"></path><path d="M245.58,95.91a.52.52,0,0,1-.21,0,.5.5,0,0,1-.24-.66s1.58-3.3,6.11-2.44a.5.5,0,1,1-.19,1c-3.74-.71-5,1.77-5,1.88A.51.51,0,0,1,245.58,95.91Z" style="fill: rgb(38, 50, 56); transform-origin: 248.37px 94.2939px;" id="elhkn0jx1dm3" class="animable"></path><path d="M267.16,95.91a.51.51,0,0,1-.46-.28h0c-.05-.11-1.27-2.59-5-1.88a.51.51,0,0,1-.59-.4.5.5,0,0,1,.4-.58c4.53-.86,6.09,2.4,6.11,2.44a.49.49,0,0,1-.25.66A.45.45,0,0,1,267.16,95.91Z" style="fill: rgb(38, 50, 56); transform-origin: 264.385px 94.2681px;" id="elhhblezf9oeo" class="animable"></path><path d="M244.79,93.08a.54.54,0,0,1-.21,0,.49.49,0,0,1-.24-.66,6.48,6.48,0,0,1,3.71-3.77,5.6,5.6,0,0,1,4.13.36.5.5,0,0,1-.48.88,4.63,4.63,0,0,0-3.34-.29,5.56,5.56,0,0,0-3.12,3.24A.49.49,0,0,1,244.79,93.08Z" style="fill: rgb(38, 50, 56); transform-origin: 248.366px 90.7514px;" id="el0zpoeq8omlpm" class="animable"></path><path d="M267.5,92.17a.51.51,0,0,1-.45-.27,4.52,4.52,0,0,0-2.69-2.5,5.2,5.2,0,0,0-3.65.54.5.5,0,0,1-.51-.86,6.18,6.18,0,0,1,4.43-.64,5.44,5.44,0,0,1,3.31,3,.49.49,0,0,1-.22.67A.46.46,0,0,1,267.5,92.17Z" style="fill: rgb(38, 50, 56); transform-origin: 263.98px 90.2257px;" id="el12d1devflx8" class="animable"></path><path d="M256.6,98.75h0a.5.5,0,0,1-.49-.5,4.36,4.36,0,0,1,1-2.33,3,3,0,0,0,.06-2.58.5.5,0,0,1,.92-.4c0,.09.89,2.1-.17,3.56a3.62,3.62,0,0,0-.81,1.76A.51.51,0,0,1,256.6,98.75Z" style="fill: rgb(38, 50, 56); transform-origin: 257.275px 95.6942px;" id="elknprfac2r8" class="animable"></path><path d="M255.23,96s-2.19,1.11-1,1.82C255.8,98.76,255.23,96,255.23,96Z" style="fill: rgb(38, 50, 56); transform-origin: 254.603px 97.0076px;" id="elfxl1sx66ymm" class="animable"></path><path d="M258.53,96s2.06.93,1,1.82C258.12,99,258.53,96,258.53,96Z" style="fill: rgb(38, 50, 56); transform-origin: 259.154px 97.0475px;" id="el7otwf14rp46" class="animable"></path><path d="M257,104.09c-2.11,0-6.57-2-6.76-2.09a.5.5,0,0,1,.41-.91c1.3.59,5,2.09,6.47,2a9.56,9.56,0,0,0,4.47-2.24.45.45,0,0,1,.61-.27.53.53,0,0,1,.3.67c-.23.69-3.39,2.72-5.33,2.84Z" style="fill: rgb(38, 50, 56); transform-origin: 256.252px 102.316px;" id="eljori6h0b0z" class="animable"></path><path d="M258.61,266.79a1,1,0,0,1,.54.21l.86-.87s17.93-41.4,36.52-37.48c-.33-.86-.67-1.68-1-2.46-3.23-7.38-8.77-12.68-9.92-23.07s2.3-15,4.38-25.37c.15-.74.3-1.44.44-2.13-.95-3.38-5.05-17.6-8.08-23.67-2.12-4.25-4.24-8.66-5.56-11.44a16.43,16.43,0,0,1-2.25-.36l-.24-.07c1.07,2,2.46,4.58,3.45,6.81a47.75,47.75,0,0,1,2.76,8.75s-12.43,3.91-21.18,13.58c0,0-12.2-11.74-23.71-14.27l8.69-14.77a4.94,4.94,0,0,1-1.25.64c-1,.31-1.06.57-1.78.45-1.05,1.5-11.48,16.6-12.79,28.18-.19,1.68-.36,3.36-.51,5,1.88,6.56,3.76,13.73,4.58,16.15,1.52,4.49,0,14.36-2.25,17.41-1.71,2.32-6.07,9.25-10.3,22,4.21.75,14.38,3.32,19.07,11.24,6,10.13,13.31,26,13.31,26C253.07,266.33,258.61,266.79,258.61,266.79Z" style="fill: #46F1DB; transform-origin: 258.27px 203.665px;" id="ellrxz2xzyaae" class="animable"></path><path d="M252.38,267.75h0a.49.49,0,0,1-.4-.29c-.08-.16-7.39-15.95-13.29-25.94-4.58-7.75-14.62-10.27-18.73-11a.5.5,0,0,1-.34-.23.52.52,0,0,1,0-.42c4.49-13.57,9.07-20.38,10.37-22.14,2.09-2.85,3.65-12.6,2.17-16.95-.49-1.46-1.37-4.64-2.39-8.33-.68-2.48-1.44-5.21-2.19-7.84a.55.55,0,0,1,0-.18c.15-1.66.32-3.35.51-5,1.32-11.66,11.71-26.73,12.89-28.41a.5.5,0,0,1,.49-.21.88.88,0,0,0,.7-.11,6.64,6.64,0,0,1,.84-.32,4.38,4.38,0,0,0,1.12-.57.5.5,0,0,1,.71.67l-8.34,14.17c10.32,2.57,20.78,11.92,22.91,13.9,7.79-8.39,18.36-12.41,20.62-13.2a47.39,47.39,0,0,0-2.64-8.22c-1-2.25-2.42-4.92-3.43-6.77a.5.5,0,0,1,0-.55.53.53,0,0,1,.53-.17l.11,0,.11,0a17.25,17.25,0,0,0,2.19.36.49.49,0,0,1,.4.28c1.38,2.89,3.46,7.23,5.56,11.43,3,6,7,19.7,8.12,23.75a.53.53,0,0,1,0,.25c-.14.68-.29,1.38-.44,2.12-.69,3.44-1.54,6.3-2.29,8.82-1.59,5.33-2.85,9.53-2.08,16.4s3.53,11.59,6.21,16.11A63,63,0,0,1,296,226c.34.79.68,1.61,1,2.47a.52.52,0,0,1-.08.51.51.51,0,0,1-.49.17c-18-3.79-35.78,36.78-36,37.19a.4.4,0,0,1-.1.15l-.87.87a.51.51,0,0,1-.64.06.58.58,0,0,0-.25-.12h0c-2.74-.23-5.45-.1-5.79.26A.49.49,0,0,1,252.38,267.75Zm-31.72-38.11c4.53.88,14.25,3.61,18.84,11.37,5.33,9,11.8,22.75,13.1,25.53,1.43-.54,4.56-.37,6-.25a1.4,1.4,0,0,1,.43.09l.53-.54c1.15-2.62,18-40.32,36.15-37.84-.23-.55-.45-1.09-.68-1.61a59.33,59.33,0,0,0-3.61-6.7c-2.73-4.61-5.56-9.38-6.35-16.51s.56-11.57,2.12-16.79c.78-2.63,1.59-5.35,2.27-8.74q.21-1,.42-2c-.89-3.14-5-17.46-8-23.46-2-4.09-4.08-8.3-5.45-11.2l-1.2-.17c.95,1.76,2.1,4,2.95,5.88a47.8,47.8,0,0,1,2.79,8.85.49.49,0,0,1-.34.57c-.12,0-12.41,4-21,13.44a.51.51,0,0,1-.35.17.54.54,0,0,1-.36-.14c-.12-.12-12.24-11.67-23.47-14.15a.51.51,0,0,1-.36-.28.53.53,0,0,1,0-.46L243,141.35a4.42,4.42,0,0,0-.57.23,2,2,0,0,1-1,.22c-1.75,2.53-11.29,16.72-12.54,27.7-.18,1.65-.35,3.3-.49,4.92.74,2.61,1.49,5.31,2.16,7.76,1,3.67,1.89,6.85,2.38,8.28,1.62,4.76,0,14.71-2.31,17.86C229.45,210,225.05,216.58,220.66,229.64Z" style="fill: rgb(38, 50, 56); transform-origin: 258.305px 203.687px;" id="elupn0e9cozq" class="animable"></path><g id="elkgtl738w6ka"><path d="M159.35,146.78a54,54,0,0,0,11.82,2.12s11.85,3.86,22,6.73,11.62,2,18.35,2.71c4.39.47,7.39.83,9.53,1.81a18.27,18.27,0,0,0-5.06-5.37c-5.39-3.23-18.31-5.39-20.47-10.5-1.22-2.9,1.45-5.28,4-6.8a27.11,27.11,0,0,1-2.75-.61c-3.68-1-21.72-3.14-23-3.41s-3.33-2.29-17.15-4.53-26.23-4.67-27.57-5.21c-.52-.21-1.73-.76-3.09-1.4.12.69.24,1.46.34,2.3.81,6.46-9.45,4.48-9.45,4.48a123.2,123.2,0,0,1,17.76,5.65C143,138.25,147.55,143.24,159.35,146.78Z" style="opacity: 0.3; transform-origin: 168.95px 141.235px;" class="animable" id="ellx0e23pjdme"></path></g><g id="el6c42px13nwj"><path d="M388.69,123.72c-1.35.54-13.76,3-27.58,5.21s-15.88,4.26-17.14,4.53-19.29,2.43-23,3.41l-.4.11c.51,1,.67,2.65.12,5.41-1.88,9.42-15.62,9.16-20.46,12.12a13.66,13.66,0,0,0-6,7.48c2.1-2.52,5.58-3,12-3.65,6.73-.71,8.21.16,18.35-2.71s22-6.73,22-6.73a54.12,54.12,0,0,0,11.83-2.12c11.8-3.54,16.38-8.53,24.72-12a123.14,123.14,0,0,1,17.77-5.65S386.91,126.05,388.69,123.72Z" style="opacity: 0.3; transform-origin: 347.565px 142.855px;" class="animable" id="el9zyvhn1dkk"></path></g><g id="eltrfy1mtbind"><path d="M272.81,139.48a10.13,10.13,0,0,1-5-6.71c-.46-3.23.23-4.38,1.61-7.61a46.49,46.49,0,0,0,1.83-4.94c-.16-.71-.26-1.19-.26-1.19a23.86,23.86,0,0,1-13.58,5.32c-7.51.48-13.3-4.2-14.38-5.14.5,1.22,1,2.26,1.42,3.13,1.53,3.14,4.22,5.38,4.49,9.6.19,3.08-2,6.07-3.94,7.7,2.92-1.66,8.5-4.44,12.68-4.25C262.19,135.59,269.51,138.21,272.81,139.48Z" style="opacity: 0.3; transform-origin: 257.92px 129.335px;" class="animable" id="elcwzmslhhn36"></path></g><g id="el3p1v2bdq94"><path d="M235.08,375.67c.92,5.76,1.62,19.37,6.69,22.6s9-2.07,8.07-9-8.24-13.79-8.47-20.95,4.32-19.65,3.86-28.42-2.31-12.45-.69-16.14a50.78,50.78,0,0,0,5.2-19.29c-3.83,13.7-11.68,27.89-20.66,24.23-3.12-1.27-5.72-4.49-7.85-8.39-.1.09-5.51,5.39-3.68,15.9s12,21.46,13.38,24.92A70.13,70.13,0,0,1,235.08,375.67Z" style="opacity: 0.3; transform-origin: 233.575px 351.855px;" class="animable" id="el355u0qituy6"></path></g><g id="el5odl4ca16tt"><path d="M296,371.5c4.91-22.32-6.7-31.13-4.39-42,1-4.64,3-12.75,5-22.26-3,9.09-8.31,25.17-16.9,25.7-7.3.46-12.9-11.17-15.27-17.1a81.76,81.76,0,0,0,1.75,8.13c3.23,11.53,3.92,12,2.31,21s-1.32,27.58,4.76,40.68c1.16,2.49,1.75,6.54,2,11,1-5.57,4.37-23.4,7.76-20,3.67,3.67,3,37.54,3,37.54C287.48,408.71,289.88,399.23,296,371.5Z" style="opacity: 0.3; transform-origin: 280.832px 360.715px;" class="animable" id="el35wqrxlpj1k"></path></g><g id="elhz5yfvdzko"><path d="M285.28,218.89c-1.21,10.58-15.63,19-23.88,20-13.6,1.51-24.79-4.83-28.11-16.92s-.3-19.65-.3-19.65l-.52-.29A16.57,16.57,0,0,1,230.3,208c-2.24,3.05-9.06,14-14.13,35.69-.16.67-.31,1.36-.45,2.05,3.68-3.42,11.1-6.82,21.2,1.84,10.8,9.26,13.94,22,14.64,25.61a32.06,32.06,0,0,1,.82-6c.69-.92,6.23-.46,6.23-.46s1.49-.11,2.37,4.18a55.17,55.17,0,0,1,2.84-4.93c3.62-5.74,13.29-17.53,23.87-20.55,7.31-2.09,11.73,3.33,13.77,6.87-1-13.08-3.49-20.56-5.94-26.17-3.23-7.38-8.77-12.68-9.92-23.07A121.47,121.47,0,0,1,285.28,218.89Z" style="opacity: 0.1; transform-origin: 258.59px 237.61px;" class="animable" id="el5nhuor93ypa"></path></g><path d="M276.37,454.12a5,5,0,0,1-3.16-.78,4.86,4.86,0,0,1-3.46-.82,3.08,3.08,0,0,1-1-2.47,20.06,20.06,0,0,1,1.28-6.26c.54-1.75,1.21-3.91,2-7,.26-1,.5-2,.73-2.93,1.41-5.68,2.26-9.1,2.26-15.4,0-1.26,0-2.83.06-4.61.16-8.37.42-22.38-2.17-28-6-13-6.45-31.8-4.8-41,1.4-7.82,1-9.06-1.26-17.12-.31-1.08-.66-2.29-1-3.65-3.4-12.13-4.63-33.63-4.63-45.11,0-11.21-2.47-11.73-2.5-11.73-2.78-.23-5.49-.11-5.83.26-.57,1.22-2.2,22.8-2.44,34.54A49.49,49.49,0,0,1,245.45,323c-.16.36-.32.7-.45,1-.95,2.16-.62,4.41-.13,7.81.3,2.12.68,4.76.86,8.11.25,4.76-.93,10.49-2.08,16-1,4.7-1.88,9.14-1.78,12.4.12,3.67,2.23,7.37,4.27,10.95,1.85,3.24,3.75,6.59,4.2,9.94.57,4.3-.7,8.24-3.16,9.81a5.09,5.09,0,0,1-5.68-.32c-4.38-2.8-5.61-12.74-6.43-19.33-.17-1.38-.32-2.62-.48-3.62a70,70,0,0,0-4.13-14.43,32.39,32.39,0,0,0-3.13-4.85c-3.57-5-9-12.65-10.27-20.16-1.69-9.7,2.6-15,3.63-16.15-.35-1.4-1.95-8-3.17-14.29-.3-1.57-7.37-38.65-1.84-62.26,5.4-23.09,12.79-33.94,14.22-35.88,2.09-2.85,3.65-12.6,2.17-16.95-.49-1.46-1.37-4.64-2.39-8.32-2.08-7.56-4.94-17.91-6.28-19.79-1.91-2.65-5.23-3.11-11.94-3.83-1.92-.2-3.38-.28-4.79-.35-3.55-.18-6.36-.32-13.65-2.38-9.65-2.74-21-6.41-21.94-6.72a55,55,0,0,1-11.88-2.13,65.58,65.58,0,0,1-16.06-7.43,68.83,68.83,0,0,0-8.71-4.62,122.34,122.34,0,0,0-17.57-5.59l-.13,0c-.07,0-.23,0-.47,0a26.38,26.38,0,0,1-6-.28c-3.19-.48-3.88-1.27-4.74-2.27a9.77,9.77,0,0,0-1.25-1.25,12.3,12.3,0,0,1-2.68-3.84,9.36,9.36,0,0,0-1.88-2.79,8,8,0,0,1-2.24-2.52c-.1-.16-.19-.32-.29-.47-.56-.84-2-3.37-1.88-5.06,0-.17,0-.34,0-.51,0-.91.06-1.76.71-2s1.31.38,2.6,2.21c2.26,3.2,3.21,3.46,4.2,3.74l.33.1a17.51,17.51,0,0,0,4.25,0l-.34-.44h0l-1.74-1.56c-.74-.67-2.11-1.92-.67-4a1.85,1.85,0,0,1,1.31-.83c1.15-.12,2.33,1,3.18,1.74l.09.08a7.83,7.83,0,0,0,2.05,1,26,26,0,0,1,5.61,2.88,8.59,8.59,0,0,1,3.7,4.68,2.28,2.28,0,0,0,.46.91,79.6,79.6,0,0,0,8.21,4c1.23.49,13.31,2.89,27.47,5.19,10.92,1.77,14.52,3.39,16.24,4.17a5.2,5.2,0,0,0,.93.36c.37.08,2.46.36,5.11.71,6.1.81,15.33,2,17.89,2.71,3.5.94,6.5,1.25,14.08.43,9.45-1,17.36-.38,24.17,1.91l2.89,1c3.48,1.2,3.48,1.19,4,.95a6.64,6.64,0,0,1,.84-.32c1.78-.54,5.82-4.36,5.57-8.37-.18-2.73-1.4-4.57-2.7-6.52a25.73,25.73,0,0,1-1.74-2.89,34.88,34.88,0,0,1-4-16.92c.18-7.78,3.41-17.55,8.51-20.44,5.25-3,14-2.5,18.14,2.92a34.32,34.32,0,0,1,5.65,11.12,26.73,26.73,0,0,1,1.31,11,45.78,45.78,0,0,1-3.73,15.14l-.37.86c-1.14,2.62-1.61,3.7-1.21,6.49a9.35,9.35,0,0,0,6.31,7A16.82,16.82,0,0,0,277,140a12.57,12.57,0,0,0,6.19-1l3.22-1.37a60.19,60.19,0,0,1,20.42-.86c7.57.82,10.57.51,14.08-.43,2.56-.69,11.79-1.9,17.89-2.71,2.64-.35,4.73-.63,5.11-.71a5.49,5.49,0,0,0,.92-.36c1.73-.78,5.32-2.4,16.24-4.17,14.17-2.3,26.24-4.7,27.47-5.19a79.81,79.81,0,0,0,8.22-4,2.17,2.17,0,0,0,.45-.91,8.69,8.69,0,0,1,3.7-4.68,26,26,0,0,1,5.61-2.88,7.77,7.77,0,0,0,2.06-1l.08-.08c.86-.78,2-1.86,3.19-1.74a1.85,1.85,0,0,1,1.3.83c1.45,2,.07,3.3-.67,4l-1.8,1.62-.29.38a18.21,18.21,0,0,0,4.27,0l.32-.1c1-.28,1.94-.54,4.2-3.74h0c1.29-1.83,2-2.4,2.6-2.21s.69,1,.71,2c0,.17,0,.34,0,.51.1,1.69-1.32,4.22-1.87,5.06-.11.15-.2.31-.3.47a8,8,0,0,1-2.24,2.52,9.36,9.36,0,0,0-1.88,2.79,12.3,12.3,0,0,1-2.68,3.84,9,9,0,0,0-1.24,1.25c-.87,1-1.55,1.79-4.75,2.27a26.37,26.37,0,0,1-6,.28c-.24,0-.4,0-.49,0l-.11,0a121.94,121.94,0,0,0-17.56,5.59,67.49,67.49,0,0,0-8.71,4.62,65.5,65.5,0,0,1-16.07,7.43,55,55,0,0,1-11.88,2.13c-1,.31-12.28,4-21.94,6.72-7.29,2.06-10.09,2.2-13.65,2.38-1.41.07-2.87.15-4.78.35-6.44.69-9.65,1.12-11.6,3.41a98.37,98.37,0,0,0-4.22,15.6c-.69,3.44-1.54,6.3-2.29,8.82-1.59,5.33-2.85,9.53-2.08,16.4s3.53,11.59,6.21,16.11A63,63,0,0,1,296,226c3.21,7.35,6.5,17.92,6.5,40.57,0,18.54-5.47,41.89-8.74,55.85-.67,2.87-1.25,5.34-1.65,7.23-.92,4.3.46,8.37,2.05,13.08,2.35,6.93,5.27,15.56,2.34,28.88-6.24,28.31-8.64,37.71-9.93,42.77-.27,1-.24,6.23,1.39,25,.49,5.59-5.89,14.11-9.89,14.61A13.5,13.5,0,0,1,276.37,454.12Zm-2.61-1.62s.9.92,4.16.51c3.48-.43,9.45-8.59,9-13.53-1.33-15.2-1.79-23.74-1.37-25.36,1.29-5.05,3.69-14.44,9.92-42.73,2.87-13.05,0-21.53-2.31-28.35-1.64-4.85-3.06-9-2.08-13.61.4-1.89,1-4.38,1.65-7.25,3.26-13.91,8.72-37.2,8.72-55.62,0-22.47-3.25-32.91-6.42-40.17a59.33,59.33,0,0,0-3.61-6.7c-2.73-4.61-5.56-9.38-6.35-16.51s.56-11.57,2.12-16.79c.78-2.63,1.59-5.35,2.27-8.74a97.86,97.86,0,0,1,4.3-15.85.57.57,0,0,1,.08-.13c2.19-2.63,5.73-3.12,12.31-3.82,1.94-.21,3.42-.28,4.84-.36,3.49-.17,6.25-.31,13.43-2.34,10-2.84,21.85-6.69,22-6.73l.13,0a54,54,0,0,0,11.71-2.1A64.65,64.65,0,0,0,374.1,139a67.38,67.38,0,0,1,8.83-4.68,125.37,125.37,0,0,1,17.72-5.65l.12,0a2.64,2.64,0,0,1,.78,0,25.57,25.57,0,0,0,5.82-.27c2.82-.42,3.32-1,4.13-1.93a10.17,10.17,0,0,1,1.36-1.37,11.71,11.71,0,0,0,2.44-3.53,9.71,9.71,0,0,1,2.15-3.12,7.1,7.1,0,0,0,2-2.25c.1-.17.2-.34.31-.51.6-.88,1.79-3.14,1.72-4.45l0-.53a7,7,0,0,0-.06-.93,9,9,0,0,0-1.43,1.72h0c-2.47,3.49-3.63,3.82-4.75,4.14l-.3.09c-1.23.37-5.11,0-5.55-.07a.49.49,0,0,1-.34-.8l.89-1.17,1.86-1.68c1-.92,1.32-1.52.53-2.65a.8.8,0,0,0-.6-.41c-.67-.07-1.73.86-2.4,1.48l-.09.08a7.75,7.75,0,0,1-2.36,1.2,25.68,25.68,0,0,0-5.41,2.79,7.68,7.68,0,0,0-3.33,4.19,2.85,2.85,0,0,1-.77,1.35,78.57,78.57,0,0,1-8.47,4.2c-1.43.57-14.09,3-27.68,5.24-10.79,1.75-14.3,3.34-16,4.1a6,6,0,0,1-1.13.43c-.41.09-2.41.35-5.18.72-6.08.8-15.26,2-17.76,2.69-3.63,1-6.72,1.29-14.45.46a59.5,59.5,0,0,0-20,.8L283.54,140a13.7,13.7,0,0,1-6.68,1.06,21,21,0,0,1-2.45-.39,10.34,10.34,0,0,1-7.07-7.8c-.44-3.07.14-4.39,1.29-7L269,125a44.62,44.62,0,0,0,3.65-14.84,26.19,26.19,0,0,0-1.26-10.57,34.06,34.06,0,0,0-5.49-10.83c-4-5.26-12.54-5.09-16.86-2.65-4.79,2.72-7.83,12.09-8,19.59a33.91,33.91,0,0,0,3.9,16.46,24.17,24.17,0,0,0,1.68,2.78c1.31,2,2.66,4,2.86,7,.28,4.48-4,8.69-6.28,9.39a4.71,4.71,0,0,0-.73.28c-.91.4-1,.37-4.76-.92l-2.89-1c-6.67-2.25-14.44-2.86-23.74-1.86-7.74.83-10.83.51-14.45-.46-2.5-.67-11.69-1.89-17.76-2.69-2.78-.36-4.78-.63-5.19-.72a6.22,6.22,0,0,1-1.13-.43c-1.69-.76-5.2-2.35-16-4.1-13.58-2.2-26.25-4.67-27.68-5.24a78.57,78.57,0,0,1-8.47-4.2,2.85,2.85,0,0,1-.77-1.35,7.58,7.58,0,0,0-3.33-4.19,25.21,25.21,0,0,0-5.41-2.79,7.87,7.87,0,0,1-2.36-1.2l-.08-.08c-.68-.62-1.68-1.55-2.41-1.48a.79.79,0,0,0-.59.41c-.8,1.13-.48,1.73.53,2.65s1.79,1.61,1.79,1.61l1,1.24a.5.5,0,0,1-.35.8c-.43.05-4.32.44-5.54.07l-.31-.09c-1.12-.32-2.28-.65-4.75-4.14a9,9,0,0,0-1.43-1.72,9.28,9.28,0,0,0-.06.93c0,.18,0,.36,0,.53-.08,1.31,1.12,3.57,1.71,4.45l.32.51a7,7,0,0,0,2,2.25,9.57,9.57,0,0,1,2.16,3.12,11.69,11.69,0,0,0,2.43,3.53,9.6,9.6,0,0,1,1.36,1.37c.82.94,1.31,1.51,4.14,1.93a25.55,25.55,0,0,0,5.82.27,2.66,2.66,0,0,1,.78,0l.11,0a125.79,125.79,0,0,1,17.73,5.65,68.68,68.68,0,0,1,8.83,4.68,64.47,64.47,0,0,0,15.84,7.33,53.88,53.88,0,0,0,11.7,2.1l.14,0c.12,0,11.95,3.89,22,6.73,7.19,2,9.94,2.17,13.43,2.34,1.43.08,2.9.15,4.84.36,6.48.69,10.39,1.11,12.65,4.24,1.45,2,4.21,12,6.44,20.1,1,3.67,1.88,6.84,2.37,8.27,1.62,4.76,0,14.71-2.31,17.86-1.41,1.92-8.7,12.62-14.06,35.52-5.47,23.4,1.55,60.28,1.85,61.84,1.37,7.05,3.21,14.43,3.23,14.51a.51.51,0,0,1-.14.48c-.06.05-5.32,5.27-3.55,15.47,1.27,7.29,6.59,14.78,10.11,19.75a33.7,33.7,0,0,1,3.24,5.06,70.71,70.71,0,0,1,4.18,14.64c.17,1,.32,2.26.49,3.66.8,6.4,2,16.06,6,18.6,1.68,1.07,3.27,1.18,4.6.33,2.14-1.37,3.23-4.92,2.71-8.84-.42-3.15-2.2-6.27-4.08-9.57-2.1-3.69-4.27-7.51-4.4-11.42-.11-3.38.82-7.87,1.8-12.63,1.14-5.48,2.31-11.15,2.06-15.78-.17-3.3-.55-5.92-.85-8-.52-3.57-.86-5.93.2-8.35.14-.32.29-.66.46-1a48.5,48.5,0,0,0,4.8-20.47c.2-9.42,1.72-33.89,2.64-35.12.78-1,4.92-.8,6.67-.66a1.57,1.57,0,0,1,1.05.51c1.1,1,2.41,4,2.41,12.22,0,11.43,1.22,32.8,4.59,44.84.38,1.36.73,2.56,1,3.64,2.31,8.07,2.73,9.53,1.28,17.58-1.62,9-1.23,27.55,4.72,40.37,2.69,5.79,2.44,19.4,2.27,28.41,0,1.77-.06,3.34-.06,4.59,0,6.42-.86,9.89-2.29,15.64-.23.91-.47,1.88-.72,2.93-.76,3.12-1.44,5.31-2,7.06a19.11,19.11,0,0,0-1.24,6,2.09,2.09,0,0,0,.67,1.7,4.12,4.12,0,0,0,2.9.57.49.49,0,0,1,.47.18ZM419.55,111.15h0Z" style="fill: rgb(38, 50, 56); transform-origin: 258.894px 268.71px;" id="elc9i6remzfj5" class="animable"></path><path d="M102.23,116.44s-3.36,4.39-2.84,5.94,2.45,2.07,3,1.55,1.55-3.75,1.94-5.55S103,114.5,102.23,116.44Z" style="fill: rgb(255, 255, 255); transform-origin: 101.861px 119.893px;" id="elunqmyh9q2k" class="animable"></path><path d="M101.75,124.62a2.34,2.34,0,0,1-.57-.07,3.16,3.16,0,0,1-2.26-2c-.56-1.68,2.21-5.47,2.87-6.35.51-1.2,1.34-1.06,1.59-1,1,.3,1.7,1.92,1.41,3.27s-1.38,5.11-2.08,5.8A1.3,1.3,0,0,1,101.75,124.62Zm1.31-8.46c-.17,0-.33.38-.36.46a.35.35,0,0,1-.07.12c-1.33,1.74-3.06,4.59-2.77,5.48a2.19,2.19,0,0,0,1.45,1.34,1,1,0,0,0,.7,0,21.67,21.67,0,0,0,1.8-5.3,2,2,0,0,0-.72-2.1Zm-.83.28h0Z" style="fill: rgb(38, 50, 56); transform-origin: 101.851px 119.892px;" id="elcv20fgfi3ov" class="animable"></path><path d="M105.59,118.89s-3.62,2.59-3.23,5,1.29,3.1,1.94,3,1.68-4.39,2.45-5.17,1.55-2.06,1-2.84S105.59,118.89,105.59,118.89Z" style="fill: rgb(255, 255, 255); transform-origin: 105.133px 122.718px;" id="elvo3ulo2slbn" class="animable"></path><path d="M104.14,127.42a1.51,1.51,0,0,1-.84-.28,4.59,4.59,0,0,1-1.43-3.13c-.43-2.73,3.27-5.41,3.43-5.52l.08,0c.21-.1,2.09-.92,2.82.18s-.08,2.45-1.09,3.47a11.4,11.4,0,0,0-1.1,2.46c-.74,2-1.05,2.73-1.61,2.84Zm1.7-8.09c-1,.7-3.26,2.79-3,4.52s.81,2.32,1,2.47a.61.61,0,0,0,.26.1,13.3,13.3,0,0,0,.94-2.21,9.27,9.27,0,0,1,1.33-2.83c.7-.71,1.28-1.75,1-2.21C107.2,118.92,106.38,119.09,105.84,119.33Z" style="fill: rgb(38, 50, 56); transform-origin: 105.158px 122.771px;" id="elbiqpmh2en8q" class="animable"></path><path d="M109.46,120.57s-.41.39-.9.92a7.41,7.41,0,0,0-1.68,2.31c-.26,1-1.81,3.36-1,4.52s1.81,1.16,2.06.78.78-2.2,1.55-3.62,2.07-2.71,1.68-3.75S110.37,119.66,109.46,120.57Z" style="fill: rgb(255, 255, 255); transform-origin: 108.445px 124.773px;" id="el6p2nb3s5y56" class="animable"></path><path d="M107.37,129.83a2.47,2.47,0,0,1-1.94-1.23c-.71-1.06,0-2.62.55-3.87a9.83,9.83,0,0,0,.42-1c0-.21.21-.85,1.79-2.54.47-.5.87-.88.93-.93a1.3,1.3,0,0,1,1.18-.47c.69.15,1,1,1.3,1.8s-.28,2-1,3c-.25.37-.5.76-.72,1.15a19.43,19.43,0,0,0-1.07,2.49,6.77,6.77,0,0,1-.5,1.16A1.11,1.11,0,0,1,107.37,129.83Zm2.71-9.11a.82.82,0,0,0-.26.2h0s-.41.39-.89.9c-1.3,1.39-1.52,2-1.55,2.09a8.87,8.87,0,0,1-.48,1.22c-.43,1-1,2.3-.63,2.9a1.64,1.64,0,0,0,1,.78.46.46,0,0,0,.26,0,9.88,9.88,0,0,0,.38-.94,20.66,20.66,0,0,1,1.14-2.62,13.83,13.83,0,0,1,.76-1.22c.55-.83,1.07-1.61.88-2.11S110.26,120.8,110.08,120.72Zm-.62-.15h0Z" style="fill: rgb(38, 50, 56); transform-origin: 108.406px 124.805px;" id="eldhaw7g7bswe" class="animable"></path><path d="M113,120.35a.57.57,0,0,1-.18,0c-1-.36-1.45-1.46-1.81-2.25a4,4,0,0,0-.33-.66,17.29,17.29,0,0,0-2.61-1.88.5.5,0,0,1,.53-.85,17,17,0,0,1,2.88,2.13,4.15,4.15,0,0,1,.44.85c.29.63.68,1.51,1.26,1.72a.5.5,0,0,1-.18,1Z" style="fill: rgb(38, 50, 56); transform-origin: 110.716px 117.526px;" id="elkcqtg719oop" class="animable"></path><path d="M414.85,116.44s3.36,4.39,2.84,5.94-2.45,2.07-3,1.55-1.55-3.75-1.93-5.55S414.08,114.5,414.85,116.44Z" style="fill: rgb(255, 255, 255); transform-origin: 415.225px 119.893px;" id="elgznwtwanu5e" class="animable"></path><path d="M415.33,124.62a1.3,1.3,0,0,1-1-.34c-.7-.69-1.77-4.38-2.07-5.8s.41-3,1.4-3.27c.25-.08,1.08-.22,1.59,1,.67.88,3.44,4.67,2.88,6.35a3.22,3.22,0,0,1-2.26,2A2.41,2.41,0,0,1,415.33,124.62Zm-1.3-8.46h0a2,2,0,0,0-.72,2.1,21.09,21.09,0,0,0,1.8,5.31,1.06,1.06,0,0,0,.69,0,2.17,2.17,0,0,0,1.45-1.34c.3-.89-1.44-3.74-2.76-5.48a.35.35,0,0,1-.07-.12C414.36,116.54,414.19,116.16,414,116.16Z" style="fill: rgb(38, 50, 56); transform-origin: 415.197px 119.893px;" id="eljivywpgvxh" class="animable"></path><path d="M411.49,118.89s3.62,2.59,3.23,5-1.29,3.1-1.93,3-1.68-4.39-2.46-5.17-1.55-2.06-1-2.84S411.49,118.89,411.49,118.89Z" style="fill: rgb(255, 255, 255); transform-origin: 411.947px 122.718px;" id="el9qb9elaubtq" class="animable"></path><path d="M413,127.42a1.09,1.09,0,0,1-.26,0c-.56-.11-.88-.83-1.62-2.84a11.24,11.24,0,0,0-1.09-2.46c-1-1-1.75-2.49-1.1-3.47s2.61-.28,2.82-.18l.09,0c.15.11,3.86,2.79,3.43,5.52a4.59,4.59,0,0,1-1.44,3.13A1.48,1.48,0,0,1,413,127.42Zm-2.86-8.37c-.18,0-.32,0-.38.12-.3.46.27,1.51,1,2.21a9.45,9.45,0,0,1,1.32,2.83,13.18,13.18,0,0,0,.95,2.21.57.57,0,0,0,.25-.1c.21-.15.74-.69,1-2.47s-2-3.82-3-4.52A3.12,3.12,0,0,0,410.09,119.05Z" style="fill: rgb(38, 50, 56); transform-origin: 411.996px 122.781px;" id="elg1zr7tqp1pk" class="animable"></path><path d="M407.62,120.57s.41.39.91.92a7.52,7.52,0,0,1,1.67,2.31c.26,1,1.81,3.36,1,4.52s-1.81,1.16-2.07.78-.78-2.2-1.55-3.62-2.07-2.71-1.68-3.75S406.71,119.66,407.62,120.57Z" style="fill: rgb(255, 255, 255); transform-origin: 408.63px 124.773px;" id="elbatkxytjaqw" class="animable"></path><path d="M409.71,129.83a1.14,1.14,0,0,1-1-.46,6.36,6.36,0,0,1-.49-1.15,21.22,21.22,0,0,0-1.08-2.5c-.21-.39-.47-.78-.72-1.15-.7-1-1.35-2-1-3s.63-1.67,1.32-1.82a1.31,1.31,0,0,1,1.18.47c0,.05.45.43.92.93,1.58,1.69,1.74,2.33,1.8,2.54a6.85,6.85,0,0,0,.42,1c.56,1.25,1.25,2.81.54,3.87a2.45,2.45,0,0,1-1.94,1.23Zm-.12-1a.81.81,0,0,0,.24,0,1.64,1.64,0,0,0,1-.78c.4-.6-.19-1.93-.63-2.9a7.58,7.58,0,0,1-.47-1.22,6.33,6.33,0,0,0-1.56-2.09c-.48-.51-.88-.89-.88-.89l0,0c-.18-.19-.27-.2-.27-.2a3.72,3.72,0,0,0-.57,1.17c-.2.52.32,1.3.88,2.13.26.39.53.8.76,1.22a20.75,20.75,0,0,1,1.14,2.63,6.63,6.63,0,0,0,.39.95Z" style="fill: rgb(38, 50, 56); transform-origin: 408.612px 124.786px;" id="elvp7hhl2cy9" class="animable"></path><path d="M404.08,120.35a.48.48,0,0,1-.46-.32.5.5,0,0,1,.29-.65c.57-.21,1-1.09,1.25-1.72a5.46,5.46,0,0,1,.44-.85,16.66,16.66,0,0,1,2.89-2.13.49.49,0,0,1,.69.16.51.51,0,0,1-.16.69,17,17,0,0,0-2.62,1.88,5.37,5.37,0,0,0-.33.65c-.36.8-.85,1.9-1.81,2.26A.57.57,0,0,1,404.08,120.35Z" style="fill: rgb(38, 50, 56); transform-origin: 406.419px 117.475px;" id="elnuaft0rey6" class="animable"></path><path d="M228.66,176.89c1.63,5.82,3.17,11.61,3.89,13.73a13.1,13.1,0,0,1,.57,3.42c13,15.93,32,30.62,47.24,41.06,5-4.69,10.57-7.63,16.17-6.45-.33-.86-.67-1.68-1-2.46a90.2,90.2,0,0,0-4.89-8.89c-10.42-4.8-23.49-11.18-37.06-18.7S232.7,183.33,228.66,176.89Z" style="fill: rgb(255, 255, 255); transform-origin: 262.595px 205.995px;" id="elvnuv3efz0sj" class="animable"></path><path d="M280.36,235.6a.51.51,0,0,1-.28-.09c-14.24-9.74-34-24.79-47.35-41.15a.49.49,0,0,1-.11-.29,12.73,12.73,0,0,0-.55-3.29c-.49-1.46-1.37-4.64-2.39-8.33-.48-1.73-1-3.58-1.51-5.43a.51.51,0,0,1,.28-.59.5.5,0,0,1,.63.19c5,8,13.33,15.22,24.73,21.54s24,12.68,37,18.69a.45.45,0,0,1,.23.2c.41.72.83,1.42,1.24,2.13A63,63,0,0,1,296,226c.34.79.68,1.61,1,2.47a.52.52,0,0,1-.08.51.51.51,0,0,1-.49.17c-4.85-1-10.14,1.1-15.72,6.32A.52.52,0,0,1,280.36,235.6Zm-46.75-41.75c13.15,16.1,32.58,30.93,46.71,40.61,5.39-5,10.57-7.12,15.42-6.46-.23-.55-.45-1.09-.68-1.61a59.33,59.33,0,0,0-3.61-6.7l-1.17-2c-13-6-25.44-12.27-36.95-18.65C243,193.31,235.15,186.81,230,179.7c.23.85.46,1.68.68,2.48,1,3.67,1.89,6.85,2.38,8.28A13.66,13.66,0,0,1,233.61,193.85Z" style="fill: rgb(38, 50, 56); transform-origin: 262.594px 205.993px;" id="el4pp8qlzja9v" class="animable"></path><path d="M273.58,242.77c-18.44-13.49-33.16-30.05-41.26-40.06a15.51,15.51,0,0,1-2,5.32c-.34.46-.79,1.13-1.33,2,7.63,18.11,21.93,36.13,34.23,49.54A120.1,120.1,0,0,1,273.58,242.77Z" style="fill: rgb(255, 255, 255); transform-origin: 251.285px 231.14px;" id="ell1wm4aei2d" class="animable"></path><path d="M263.2,260a.49.49,0,0,1-.37-.16c-11.3-12.32-26.42-30.94-34.32-49.68a.5.5,0,0,1,0-.46c.61-1,1.07-1.63,1.35-2a14.84,14.84,0,0,0,1.93-5.13.5.5,0,0,1,.88-.2c8.9,11,23.27,26.87,41.17,40a.54.54,0,0,1,.2.33.51.51,0,0,1-.1.38,121,121,0,0,0-10.34,16.7.47.47,0,0,1-.38.27Zm-33.67-50c7.76,18.26,22.42,36.42,33.56,48.63a121,121,0,0,1,9.79-15.81c-17.37-12.79-31.4-28.13-40.31-39.06a14,14,0,0,1-1.86,4.51C230.46,208.66,230.06,209.23,229.53,210.05Z" style="fill: rgb(38, 50, 56); transform-origin: 251.249px 231.115px;" id="el01047gepc3qf" class="animable"></path></g><g id="freepik--Lines--inject-267" class="animable" style="transform-origin: 260.935px 232.552px;"><path d="M311.48,164.52a.51.51,0,0,1-.49-.41.5.5,0,0,1,.4-.58c13.24-2.44,22.49-11.06,22.49-21,0-5.06-2.46-10-6.93-13.85a.51.51,0,0,1-.05-.71.49.49,0,0,1,.7,0c4.69,4.07,7.28,9.26,7.28,14.61,0,10.39-9.58,19.42-23.3,22Z" style="fill: rgb(38, 50, 56); transform-origin: 322.931px 146.201px;" id="elqj0k06w2m8h" class="animable"></path><path d="M321.52,125a.46.46,0,0,1-.23-.06,35.5,35.5,0,0,0-6.89-2.64.5.5,0,0,1,.26-1,35.66,35.66,0,0,1,7.09,2.72.49.49,0,0,1,.21.67A.5.5,0,0,1,321.52,125Z" style="fill: rgb(38, 50, 56); transform-origin: 318.016px 123.142px;" id="elyztb5qpqeo" class="animable"></path><path d="M187.49,145.47a.5.5,0,0,1-.5-.5c0-6.11,4-11.81,11-15.64a.5.5,0,1,1,.48.88c-6.67,3.65-10.49,9-10.49,14.76A.51.51,0,0,1,187.49,145.47Z" style="fill: rgb(38, 50, 56); transform-origin: 192.861px 137.369px;" id="eljpqal82gdpl" class="animable"></path><path d="M202,162.41a.57.57,0,0,1-.18,0c-5.68-2.22-10.16-5.69-12.64-9.8a.5.5,0,0,1,.17-.68.49.49,0,0,1,.69.17c2.36,3.91,6.67,7.24,12.14,9.37a.49.49,0,0,1,.28.65A.48.48,0,0,1,202,162.41Z" style="fill: rgb(38, 50, 56); transform-origin: 195.805px 157.135px;" id="elhltch1g5ghk" class="animable"></path><path d="M298,336a.52.52,0,0,1-.35-.14.5.5,0,0,1,0-.71c5.61-5.79,10.34-14.54,13.31-24.66a.5.5,0,0,1,.62-.34.51.51,0,0,1,.34.62c-3,10.27-7.83,19.18-13.55,25.08A.51.51,0,0,1,298,336Z" style="fill: rgb(38, 50, 56); transform-origin: 304.72px 323.065px;" id="eljp6hq5waixi" class="animable"></path><path d="M313.54,302h-.09a.5.5,0,0,1-.4-.59c.41-2.29.74-4.64,1-7,2.59-25.21-5.57-48.07-19-53.19a.51.51,0,0,1-.29-.65.5.5,0,0,1,.65-.29c14.06,5.36,22.32,28.17,19.63,54.23-.24,2.37-.58,4.75-1,7.07A.5.5,0,0,1,313.54,302Z" style="fill: rgb(38, 50, 56); transform-origin: 305.137px 271.123px;" id="eljtaxydkyar" class="animable"></path><path d="M258.4,278.64h-.11a.5.5,0,0,1-.38-.6c4.25-19.32,14.36-34.22,25.74-37.95a.5.5,0,1,1,.31.95c-11,3.62-20.9,18.23-25.07,37.22A.5.5,0,0,1,258.4,278.64Z" style="fill: rgb(38, 50, 56); transform-origin: 271.11px 259.35px;" id="elextfmk8e8i" class="animable"></path><path d="M282,343.82a17.44,17.44,0,0,1-1.76-.09c-6.74-.69-12.68-5.28-17.15-13.25A.5.5,0,0,1,264,330c4.31,7.68,10,12.09,16.39,12.75,5.86.6,11.83-2,17.26-7.63a.5.5,0,0,1,.71,0,.51.51,0,0,1,0,.71C293.21,341.08,287.6,343.82,282,343.82Z" style="fill: rgb(38, 50, 56); transform-origin: 280.767px 336.773px;" id="elimbv47godxm" class="animable"></path><path d="M211.07,252.21a.46.46,0,0,1-.27-.09.5.5,0,0,1-.14-.69c3.83-5.74,8.67-9.07,14-9.62a17.11,17.11,0,0,1,10.75,2.67.5.5,0,0,1-.52.86,16,16,0,0,0-10.13-2.53c-5,.51-9.62,3.69-13.28,9.18A.5.5,0,0,1,211.07,252.21Z" style="fill: rgb(38, 50, 56); transform-origin: 223.114px 246.978px;" id="el1no579f204b" class="animable"></path><path d="M250.71,321a.5.5,0,0,1-.21-.05.51.51,0,0,1-.25-.66c4.23-9.17,5.91-21.67,4.61-34.29-1.5-14.53-6.81-27.94-14.22-35.89a.5.5,0,1,1,.73-.69c7.55,8.11,13,21.74,14.49,36.48,1.33,13-.33,25.34-4.7,34.81A.49.49,0,0,1,250.71,321Z" style="fill: rgb(38, 50, 56); transform-origin: 248.404px 285.131px;" id="elfks331cen2i" class="animable"></path><path d="M232.78,335.5c-12.07,0-23.77-14.45-28.23-35.23a.5.5,0,1,1,1-.21c4.55,21.16,16.62,35.61,28.7,34.37,5-.52,9.62-3.7,13.28-9.18a.5.5,0,0,1,.69-.14.49.49,0,0,1,.14.69c-3.82,5.74-8.67,9.07-14,9.62A13.24,13.24,0,0,1,232.78,335.5Z" style="fill: rgb(38, 50, 56); transform-origin: 226.492px 317.577px;" id="elva4ffkhbfn" class="animable"></path><path d="M203.63,291.78a.49.49,0,0,1-.49-.44c-1.6-15.52,1.21-30.44,7.52-39.91a.5.5,0,0,1,.69-.14.51.51,0,0,1,.14.7c-6.19,9.28-8.94,23.95-7.36,39.24a.5.5,0,0,1-.44.55Z" style="fill: rgb(38, 50, 56); transform-origin: 207.136px 271.494px;" id="ela5jdif6krf" class="animable"></path></g><g id="freepik--Water--inject-267" class="animable" style="transform-origin: 254.175px 236.518px;"><path d="M368.68,175a.5.5,0,0,1-.48-.39,226.63,226.63,0,0,0-19.37-54.73.5.5,0,1,1,.89-.45,227.52,227.52,0,0,1,19.45,55,.5.5,0,0,1-.38.6Z" style="fill: rgb(38, 50, 56); transform-origin: 358.971px 147.076px;" id="el6tt3u2xj10b" class="animable"></path><path d="M121.23,175h-.11a.5.5,0,0,1-.38-.6,227.52,227.52,0,0,1,19.45-55,.5.5,0,1,1,.89.45,227.06,227.06,0,0,0-19.37,54.73A.49.49,0,0,1,121.23,175Z" style="fill: rgb(38, 50, 56); transform-origin: 130.939px 147.046px;" id="el06lty9xdu9zi" class="animable"></path><path d="M158.73,228.6h0a.5.5,0,0,1-.49-.51,237.25,237.25,0,0,1,7-55.62.5.5,0,0,1,1,.24,236.35,236.35,0,0,0-6.93,55.39A.5.5,0,0,1,158.73,228.6Z" style="fill: rgb(38, 50, 56); transform-origin: 162.247px 200.342px;" id="el0z85c1h25iqh" class="animable"></path><path d="M153.77,313.21a.5.5,0,0,1-.48-.36,264.72,264.72,0,0,1-10.21-54.51.5.5,0,0,1,1-.08,262.68,262.68,0,0,0,10.17,54.3.5.5,0,0,1-.34.63Z" style="fill: rgb(38, 50, 56); transform-origin: 148.676px 285.505px;" id="el58xel6t8it4" class="animable"></path><path d="M249.42,387.53h-.07c-33.6-4.93-63.21-35.8-79.22-82.58a.5.5,0,0,1,.31-.63.5.5,0,0,1,.64.31c15.88,46.42,45.2,77,78.41,81.91a.51.51,0,0,1,.42.57A.5.5,0,0,1,249.42,387.53Z" style="fill: rgb(38, 50, 56); transform-origin: 210.009px 345.911px;" id="elud4d1c2wuz" class="animable"></path><path d="M243.83,438.14h-.08c-49-7.56-91.17-45.42-112.69-101.27a.49.49,0,0,1,.29-.64.5.5,0,0,1,.64.28c21.39,55.51,63.23,93.14,111.92,100.64a.5.5,0,0,1-.08,1Z" style="fill: rgb(38, 50, 56); transform-origin: 187.699px 387.175px;" id="elnij026ipxx" class="animable"></path><path d="M305.31,402.49a.48.48,0,0,1-.41-.22.49.49,0,0,1,.13-.69c11.34-7.79,21.79-18.36,31.05-31.42a.49.49,0,0,1,.69-.12.5.5,0,0,1,.12.7c-9.32,13.16-19.85,23.81-31.3,31.66A.47.47,0,0,1,305.31,402.49Z" style="fill: rgb(38, 50, 56); transform-origin: 320.897px 386.219px;" id="el377khhog4kt" class="animable"></path><path d="M329.87,341.76a.48.48,0,0,1-.26-.07.49.49,0,0,1-.16-.69c18.72-29.61,29-68.91,29-110.67a245.82,245.82,0,0,0-2.33-33.83.5.5,0,1,1,1-.14,246.28,246.28,0,0,1,2.34,34c0,41.95-10.37,81.44-29.18,111.2A.51.51,0,0,1,329.87,341.76Z" style="fill: rgb(38, 50, 56); transform-origin: 344.415px 268.841px;" id="el3e9a8npgr5x" class="animable"></path><path d="M363.53,382.35a.46.46,0,0,1-.27-.09.5.5,0,0,1-.15-.69c31-47.43,46.24-109,42.86-173.43a328.9,328.9,0,0,0-6.88-52,.5.5,0,0,1,.38-.6.51.51,0,0,1,.6.39,329.75,329.75,0,0,1,6.9,52.13c3.39,64.62-11.89,126.43-43,174A.49.49,0,0,1,363.53,382.35Z" style="fill: rgb(38, 50, 56); transform-origin: 385.232px 268.94px;" id="el13eg01eh0wrn" class="animable"></path><path d="M363,100.22a.51.51,0,0,1-.43-.23C352.39,83.68,341,69.91,328.69,59.06a.5.5,0,0,1,0-.71.48.48,0,0,1,.7,0c12.37,10.91,23.83,24.76,34.08,41.15a.49.49,0,0,1-.16.69A.48.48,0,0,1,363,100.22Z" style="fill: rgb(38, 50, 56); transform-origin: 346.046px 79.2158px;" id="el8w752gztcx" class="animable"></path><path d="M174.12,78.82a.5.5,0,0,1-.39-.82c17.47-21.44,36.93-35.94,57.82-43.09a.51.51,0,0,1,.64.31.5.5,0,0,1-.31.63c-20.72,7.09-40,21.49-57.37,42.79A.5.5,0,0,1,174.12,78.82Z" style="fill: rgb(38, 50, 56); transform-origin: 202.915px 56.852px;" id="elyfjl8iec1yl" class="animable"></path><path d="M166.47,124a.44.44,0,0,1-.22-.05.49.49,0,0,1-.23-.66c22.3-45.8,56.13-72.06,92.83-72.06,29.28,0,57.28,17.07,78.85,48.08a.5.5,0,1,1-.82.57c-21.37-30.73-49.09-47.65-78-47.65-36.3,0-69.81,26.06-91.93,71.49A.49.49,0,0,1,166.47,124Z" style="fill: rgb(38, 50, 56); transform-origin: 251.887px 87.6157px;" id="elsp7199fhgc" class="animable"></path><path d="M406.59,412.14a.51.51,0,0,1-.41-.79,252.85,252.85,0,0,0,15-24.76.51.51,0,0,1,.67-.21.5.5,0,0,1,.21.68A255.58,255.58,0,0,1,407,411.92.52.52,0,0,1,406.59,412.14Z" style="fill: rgb(38, 50, 56); transform-origin: 414.108px 399.234px;" id="el0wxx01ggkszr" class="animable"></path><path d="M424.87,381.09a.46.46,0,0,1-.22-.06.49.49,0,0,1-.22-.67c19.3-38.72,29.66-83.38,29.95-129.16a.49.49,0,0,1,.5-.49h0a.5.5,0,0,1,.5.5c-.29,45.93-10.69,90.74-30.06,129.6A.49.49,0,0,1,424.87,381.09Z" style="fill: rgb(38, 50, 56); transform-origin: 439.877px 315.9px;" id="elnzix44trz6" class="animable"></path><path d="M454.8,242.46a.5.5,0,0,1-.5-.48c-.18-8-.68-16.07-1.47-24a.5.5,0,1,1,1-.1c.8,7.93,1.3,16,1.48,24a.5.5,0,0,1-.49.51Z" style="fill: rgb(38, 50, 56); transform-origin: 454.069px 229.943px;" id="elyxapw67onwc" class="animable"></path><path d="M53.57,257.76a.51.51,0,0,1-.5-.49c-.07-2.68-.1-5.39-.1-8.07a314.23,314.23,0,0,1,2.35-38.41.5.5,0,0,1,.56-.43.49.49,0,0,1,.43.56A314,314,0,0,0,54,249.2c0,2.67,0,5.37.1,8.05a.5.5,0,0,1-.49.51Z" style="fill: rgb(38, 50, 56); transform-origin: 54.6427px 234.058px;" id="elxx36mll4tr" class="animable"></path><path d="M93,398.46a.5.5,0,0,1-.43-.25c-23.36-39.11-36.92-85.48-39.22-134.1a.5.5,0,1,1,1-.05c2.29,48.46,15.8,94.67,39.08,133.64a.52.52,0,0,1-.43.76Z" style="fill: rgb(38, 50, 56); transform-origin: 73.4193px 331.022px;" id="elh6e70ix1wl6" class="animable"></path><path d="M102.08,412.61a.5.5,0,0,1-.41-.22c-2-2.95-4.08-6-6-9.1a.51.51,0,0,1,.16-.69.5.5,0,0,1,.69.16c1.93,3.07,4,6.12,6,9.06a.5.5,0,0,1-.13.7A.47.47,0,0,1,102.08,412.61Z" style="fill: rgb(38, 50, 56); transform-origin: 99.1037px 407.567px;" id="elogj0bmyoh" class="animable"></path></g><g id="freepik--Plants--inject-267" class="animable" style="transform-origin: 255.514px 299.263px;"><path d="M423.2,195.72a.35.35,0,0,0-.37.31,44.2,44.2,0,0,0,15.88,40.07.35.35,0,1,0,.44-.54,43.47,43.47,0,0,1-15.63-39.44.34.34,0,0,0-.3-.39Z" style="fill: rgb(38, 50, 56); transform-origin: 430.876px 215.961px;" id="elb9zk5ei5fuf" class="animable"></path><path d="M429.64,209.18c-4.14,1-6.85-5.3-6.71-5.41-.06-.73-.1-1.46-.11-2.2.36.92,2.33,2.29,5.46,3S433.61,208.36,429.64,209.18Z" style="fill: rgb(38, 50, 56); transform-origin: 427.3px 205.429px;" id="el5gl0q1i7fze" class="animable"></path><path d="M417.57,211.55c-4.09.85-3.14-4.83-.07-6.2s4.87-2.88,5.26-3.78c0,.74-.05,1.48,0,2.21C422.56,203.73,421.42,210.61,417.57,211.55Z" style="fill: rgb(38, 50, 56); transform-origin: 418.8px 206.603px;" id="eln83f3xk4qef" class="animable"></path><path d="M431.37,215.25c-3.9,1.69-7.62-4-7.5-4.13-.18-.7-.34-1.41-.48-2.12.51.83,2.69,1.83,5.88,2S435.15,213.77,431.37,215.25Z" style="fill: rgb(38, 50, 56); transform-origin: 428.304px 212.282px;" id="elejq9j1gs6vm" class="animable"></path><path d="M419.88,219.62c-3.89,1.52-3.89-4.19-1.1-6.05s4.32-3.62,4.55-4.56c.09.72.2,1.44.33,2.15C423.5,211.13,423.51,218,419.88,219.62Z" style="fill: rgb(38, 50, 56); transform-origin: 420.234px 214.442px;" id="eljrutlo3uauh" class="animable"></path><path d="M434.09,220.92c-3.57,2.31-8.18-2.66-8.08-2.8-.29-.65-.56-1.31-.82-2,.64.71,2.95,1.32,6.13,1S437.57,218.83,434.09,220.92Z" style="fill: rgb(38, 50, 56); transform-origin: 430.41px 218.826px;" id="elgyio4ldf4it" class="animable"></path><path d="M423.49,227.15c-3.58,2.14-4.53-3.47-2.08-5.76s3.65-4.28,3.72-5.23c.21.68.44,1.37.68,2C425.65,218.19,426.81,225,423.49,227.15Z" style="fill: rgb(38, 50, 56); transform-origin: 422.964px 221.894px;" id="elowdbwje4s4" class="animable"></path><path d="M437.73,226.06c-3.14,2.87-8.52-1.27-8.45-1.41-.39-.6-.77-1.21-1.13-1.82.74.6,3.12.81,6.2-.08S440.81,223.42,437.73,226.06Z" style="fill: rgb(38, 50, 56); transform-origin: 433.548px 224.785px;" id="elq6x1t0f9q6n" class="animable"></path><path d="M428.32,234c-3.17,2.71-5.06-2.68-3-5.34s2.89-4.83,2.8-5.78c.32.64.66,1.27,1,1.9C428.94,224.77,431.22,231.27,428.32,234Z" style="fill: rgb(38, 50, 56); transform-origin: 427.131px 228.811px;" id="elrbt3ihd2sm" class="animable"></path><path d="M442.21,230.56c-2.61,3.36-8.65.14-8.6,0-.49-.53-1-1.07-1.43-1.61.84.46,3.22.28,6.11-1.11S444.8,227.43,442.21,230.56Z" style="fill: rgb(38, 50, 56); transform-origin: 437.639px 229.654px;" id="els8mus5nx7zo" class="animable"></path><path d="M434.28,240c-2.68,3.21-5.48-1.82-3.93-4.8s2-5.25,1.78-6.18c.43.58.87,1.15,1.33,1.72C433.29,230.72,436.67,236.79,434.28,240Z" style="fill: rgb(38, 50, 56); transform-origin: 432.522px 235.026px;" id="eljewpijcr2xs" class="animable"></path><path d="M436.42,233.66c-.11,0,3,5.38,5.81,7.34s4.82.46,4.92-1-1.79-2.78-3.6-3.53C441.7,235.88,436.4,233.76,436.42,233.66Z" style="fill: rgb(38, 50, 56); transform-origin: 441.786px 237.798px;" id="elmja81xumq1l" class="animable"></path><path d="M436.44,233.43h0a.21.21,0,0,0-.21.17v0a.16.16,0,0,0,.05.18c.4,1.08,3.46,5.71,5.86,7.39a3.8,3.8,0,0,0,3.86.74,2.38,2.38,0,0,0,1.43-1.91c.17-2-2.83-3.38-3.76-3.76-1.8-.58-6.62-2.51-7-2.76A.19.19,0,0,0,436.44,233.43Zm8.12,8.29a4.15,4.15,0,0,1-2.19-.91c-2.2-1.54-4.59-5.2-5.42-6.63.45.2,1.15.48,2.25.92,1.42.56,3.28,1.28,4.27,1.6,1.74.71,3.57,2,3.45,3.28a1.91,1.91,0,0,1-1.16,1.53A2.55,2.55,0,0,1,444.56,241.72Z" style="fill: rgb(38, 50, 56); transform-origin: 441.829px 237.778px;" id="elr7q8vr3a8zs" class="animable"></path><path d="M421.81,396.43a.37.37,0,0,0-.15-.48,46.82,46.82,0,0,0-45.66-.54.38.38,0,0,0-.15.51.37.37,0,0,0,.5.14,46.1,46.1,0,0,1,44.95.53.37.37,0,0,0,.5-.13Z" style="fill: rgb(38, 50, 56); transform-origin: 398.826px 393.186px;" id="el8v53rteq506" class="animable"></path><path d="M406,397.34c.67-4.46,8-4.59,8-4.4.74.24,1.47.49,2.2.77-1,0-3.18,1.37-5.16,4.14S405.24,401.57,406,397.34Z" style="fill: rgb(38, 50, 56); transform-origin: 411.051px 396.556px;" id="elvtf749p8npm" class="animable"></path><path d="M408.55,384.56c.82-4.35,6-1.14,6.12,2.42s.86,5.93,1.59,6.67c-.71-.33-1.43-.63-2.15-.92C414.22,392.59,407.94,388.71,408.55,384.56Z" style="fill: rgb(38, 50, 56); transform-origin: 412.384px 388.056px;" id="elaahh9jnx5h5" class="animable"></path><path d="M399.38,396.6c-.08-4.5,7-5.86,7.07-5.69.76.1,1.51.23,2.27.38-1,.16-2.87,1.9-4.33,5S399.31,400.9,399.38,396.6Z" style="fill: rgb(38, 50, 56); transform-origin: 404.049px 395.079px;" id="el4x7lqoo6jup" class="animable"></path><path d="M399.72,383.58c.07-4.42,5.67-2.13,6.37,1.35s1.82,5.69,2.64,6.29c-.74-.19-1.49-.37-2.24-.53C406.59,390.54,399.82,387.78,399.72,383.58Z" style="fill: rgb(38, 50, 56); transform-origin: 404.225px 386.181px;" id="eldt2x04wvr0n" class="animable"></path><path d="M392.73,397c-.82-4.43,5.9-6.95,6-6.8q1.14,0,2.28,0c-1,.33-2.48,2.35-3.41,5.62S393.39,401.24,392.73,397Z" style="fill: rgb(38, 50, 56); transform-origin: 396.835px 394.776px;" id="elbc69gbc98x" class="animable"></path><path d="M390.89,384.1c-.67-4.38,5.22-3.05,6.48.27s2.73,5.3,3.63,5.75q-1.12-.11-2.28-.15C398.8,389.81,391.69,388.22,390.89,384.1Z" style="fill: rgb(38, 50, 56); transform-origin: 395.919px 385.718px;" id="el5mh2kug3ak" class="animable"></path><path d="M386.23,398.49c-1.55-4.23,4.67-7.84,4.78-7.71.74-.15,1.49-.28,2.24-.39-.89.5-2.05,2.74-2.42,6.12S387.59,402.57,386.23,398.49Z" style="fill: rgb(38, 50, 56); transform-origin: 389.616px 395.47px;" id="el2huz14z1h1" class="animable"></path><path d="M382.25,386.08c-1.38-4.2,4.66-3.88,6.46-.82s3.57,4.78,4.54,5.07c-.76.06-1.52.13-2.27.23C391,390.39,383.74,390,382.25,386.08Z" style="fill: rgb(38, 50, 56); transform-origin: 387.648px 386.752px;" id="elk4dpsjnxta" class="animable"></path><path d="M380,401.08c-2.25-3.91,3.33-8.55,3.46-8.43.71-.27,1.43-.52,2.15-.76-.79.64-1.57,3.05-1.37,6.44S382.05,404.87,380,401.08Z" style="fill: rgb(38, 50, 56); transform-origin: 382.538px 397.348px;" id="el795l9uf95lv" class="animable"></path><path d="M374,389.52c-2.08-3.91,4-4.64,6.27-1.92s4.34,4.1,5.35,4.23c-.74.19-1.48.39-2.21.61C383.45,392.26,376.14,393.14,374,389.52Z" style="fill: rgb(38, 50, 56); transform-origin: 379.597px 389.207px;" id="eloixeeychqr" class="animable"></path><path d="M379.31,394.16c0-.12-6.49.79-9.53,2.74s-2.39,4.54-1,5.23,3.46-.65,4.92-2.12S379.22,394.1,379.31,394.16Z" style="fill: rgb(38, 50, 56); transform-origin: 373.463px 398.233px;" id="eluyv9vx5bui9" class="animable"></path><path d="M397.67,371.1a11.3,11.3,0,0,0-6.86,1.61c-3,1.83-2.39,4.54-1,5.23s3.45-.65,4.91-2.12A53.36,53.36,0,0,0,397.67,371.1Z" style="fill: rgb(38, 50, 56); transform-origin: 393.165px 374.592px;" id="elxgwjkbmq1fs" class="animable"></path><path d="M376.78,371.11a6.74,6.74,0,0,0,6.43-1.75c2.44-2.57,1.09-5-.43-5.3s-3.15,1.55-4.17,3.36A28.36,28.36,0,0,1,376.78,371.11Z" style="fill: rgb(38, 50, 56); transform-origin: 380.665px 367.675px;" id="elbgdh21kajji" class="animable"></path><path d="M379.53,394.26a0,0,0,0,0,0,0,.23.23,0,0,0-.08-.27h0a.17.17,0,0,0-.19,0c-1.22,0-7,1.1-9.6,2.77a4.05,4.05,0,0,0-2.28,3.49,2.53,2.53,0,0,0,1.3,2.17c1.87,1,4.45-1.42,5.19-2.17,1.29-1.53,5.12-5.48,5.54-5.8A.22.22,0,0,0,379.53,394.26Zm-11.39,4.63a4.29,4.29,0,0,1,1.77-1.78c2.39-1.54,6.94-2.41,8.68-2.65-.37.36-.94.94-1.81,1.84-1.12,1.16-2.57,2.71-3.28,3.55-1.4,1.41-3.36,2.7-4.61,2.06a2,2,0,0,1-1-1.75A2.62,2.62,0,0,1,368.14,398.89Z" style="fill: rgb(38, 50, 56); transform-origin: 373.463px 398.31px;" id="elixezw30q7nq" class="animable"></path><path d="M112.2,302a.37.37,0,0,0,.17-.49,48.93,48.93,0,0,0-38.06-28.8.39.39,0,0,0-.44.33.38.38,0,0,0,.33.43,48.19,48.19,0,0,1,37.47,28.35.39.39,0,0,0,.5.2Z" style="fill: rgb(38, 50, 56); transform-origin: 93.136px 287.377px;" id="elyj2w9tnebe" class="animable"></path><path d="M98.37,293c3.33-3.34,9.53,1.08,9.46,1.26.47.66.92,1.33,1.36,2-.86-.66-3.52-.82-6.9.28S95.08,296,98.37,293Z" style="fill: rgb(38, 50, 56); transform-origin: 103.152px 294.319px;" id="eluntdt7us809" class="animable"></path><path d="M108.42,283.78c3.39-3.16,5.75,2.77,3.64,5.83s-3,5.53-2.81,6.6c-.39-.72-.8-1.42-1.23-2.12C108.2,294.05,105.33,286.89,108.42,283.78Z" style="fill: rgb(38, 50, 56); transform-origin: 109.92px 289.545px;" id="el893bonl5g4o" class="animable"></path><path d="M93.23,288.22c2.73-3.84,9.53-.59,9.49-.41.56.56,1.12,1.14,1.66,1.73-.95-.49-3.59-.18-6.72,1.48S90.5,291.79,93.23,288.22Z" style="fill: rgb(38, 50, 56); transform-origin: 98.3529px 289.09px;" id="elogcvpcu6v6" class="animable"></path><path d="M101.6,277.48c2.81-3.68,6.09,1.72,4.52,5.09s-2,5.91-1.69,6.92c-.5-.62-1-1.24-1.55-1.84C103.06,287.59,99.07,281.06,101.6,277.48Z" style="fill: rgb(38, 50, 56); transform-origin: 103.642px 282.868px;" id="elvzdkhofocc" class="animable"></path><path d="M87.4,284.41c2-4.23,9.27-2.18,9.26-2q1,.69,1.92,1.41c-1-.31-3.56.44-6.36,2.61S85.31,288.39,87.4,284.41Z" style="fill: rgb(38, 50, 56); transform-origin: 92.7043px 284.78px;" id="ele8k9gmiy16s" class="animable"></path><path d="M93.85,272.43c2.16-4.09,6.29.67,5.29,4.25s-1,6.15-.52,7.09c-.59-.53-1.2-1-1.82-1.54C97,282.14,92,276.39,93.85,272.43Z" style="fill: rgb(38, 50, 56); transform-origin: 96.366px 277.312px;" id="elg2koic7txen" class="animable"></path><path d="M81,281.64c1.31-4.53,8.79-3.7,8.8-3.52.71.34,1.42.69,2.12,1.07-1.05-.14-3.42,1-5.83,3.64S79.61,285.91,81,281.64Z" style="fill: rgb(38, 50, 56); transform-origin: 86.3189px 281.389px;" id="el54bb99gf32x" class="animable"></path><path d="M85.36,268.74c1.44-4.4,6.33-.38,5.94,3.31s0,6.23.67,7.08c-.68-.42-1.36-.83-2-1.22C90.07,277.8,84.17,273,85.36,268.74Z" style="fill: rgb(38, 50, 56); transform-origin: 88.5857px 272.972px;" id="elrrskji92moo" class="animable"></path><path d="M74.18,280c.54-4.68,8.11-5.11,8.14-4.93.77.21,1.53.44,2.28.7-1.06,0-3.21,1.58-5.15,4.55S73.53,284.41,74.18,280Z" style="fill: rgb(38, 50, 56); transform-origin: 79.3545px 278.987px;" id="elw2pfvdfeafm" class="animable"></path><path d="M76.29,266.51c.68-4.58,6.23-1.43,6.47,2.28s1.1,6.14,1.87,6.87c-.74-.3-1.49-.59-2.24-.86C82.53,274.67,75.84,270.87,76.29,266.51Z" style="fill: rgb(38, 50, 56); transform-origin: 80.4491px 269.947px;" id="el974mw8d3979" class="animable"></path><path d="M77.87,273.69c.11-.07-6-3.35-9.71-3.6s-4.83,2.33-4.09,3.77,3.3,1.6,5.44,1.26C71.6,274.63,77.83,273.59,77.87,273.69Z" style="fill: rgb(38, 50, 56); transform-origin: 70.8631px 272.672px;" id="elo3bdzpngfb9" class="animable"></path><path d="M102.69,262.1c.1-.08-6-3.36-9.72-3.61s-4.83,2.33-4.09,3.77,3.3,1.6,5.45,1.27C96.42,263,102.65,262,102.69,262.1Z" style="fill: rgb(38, 50, 56); transform-origin: 95.6775px 261.074px;" id="el0xbm3d6kr4r9" class="animable"></path><path d="M78,273.92l0,0a.25.25,0,0,0,.1-.28v0a.17.17,0,0,0-.14-.14c-1-.79-6.56-3.41-9.8-3.63a4.23,4.23,0,0,0-4.07,1.52,2.62,2.62,0,0,0-.26,2.63c1,2,4.62,1.57,5.71,1.4,2-.49,7.71-1.43,8.26-1.44A.22.22,0,0,0,78,273.92Zm-12.45-3.18a4.6,4.6,0,0,1,2.59-.4c3,.2,7.33,2.29,9,3.16-.54.08-1.37.21-2.66.43-1.67.28-3.85.68-5,.95-2,.31-4.5.19-5.15-1.14a2.11,2.11,0,0,1,.22-2.11A2.72,2.72,0,0,1,65.54,270.74Z" style="fill: rgb(38, 50, 56); transform-origin: 70.851px 272.69px;" id="el4s9xbz2ly5l" class="animable"></path></g><defs>     <filter id="active" height="200%">         <feMorphology in="SourceAlpha" result="DILATED" operator="dilate" radius="2"></feMorphology>                <feFlood flood-color="#32DFEC" flood-opacity="1" result="PINK"></feFlood>        <feComposite in="PINK" in2="DILATED" operator="in" result="OUTLINE"></feComposite>        <feMerge>            <feMergeNode in="OUTLINE"></feMergeNode>            <feMergeNode in="SourceGraphic"></feMergeNode>        </feMerge>    </filter>    <filter id="hover" height="200%">        <feMorphology in="SourceAlpha" result="DILATED" operator="dilate" radius="2"></feMorphology>                <feFlood flood-color="#ff0000" flood-opacity="0.5" result="PINK"></feFlood>        <feComposite in="PINK" in2="DILATED" operator="in" result="OUTLINE"></feComposite>        <feMerge>            <feMergeNode in="OUTLINE"></feMergeNode>            <feMergeNode in="SourceGraphic"></feMergeNode>        </feMerge>            <feColorMatrix type="matrix" values="0   0   0   0   0                0   1   0   0   0                0   0   0   0   0                0   0   0   1   0 "></feColorMatrix>    </filter></defs></svg>